<svg id="svg" version="1.1" width="400" height="400" viewBox="0 0 400 400" xmlns="http://www.w3.org/2000/svg" xmlns:xlink="http://www.w3.org/1999/xlink" ><g id="svgg"><path id="path0" d="M191.829 7.829 C 191.139 8.518,191.001 9.200,191.551 9.200 C 192.012 9.200,193.003 8.002,192.549 7.994 C 192.357 7.991,192.470 7.813,192.800 7.600 C 193.152 7.373,193.205 7.210,192.929 7.206 C 192.669 7.203,192.174 7.483,191.829 7.829 M199.347 13.705 C 199.477 14.557,200.039 15.223,200.428 14.983 C 201.021 14.616,200.862 14.061,200.036 13.619 C 199.472 13.318,199.292 13.340,199.347 13.705 M186.000 20.884 L 185.000 21.707 186.000 21.404 C 187.225 21.033,187.320 20.953,187.142 20.455 C 187.064 20.238,186.550 20.431,186.000 20.884 M177.680 37.680 C 177.096 38.264,177.058 38.800,177.600 38.800 C 177.820 38.800,177.955 38.575,177.900 38.300 C 177.845 38.025,178.025 37.845,178.300 37.900 C 178.575 37.955,178.800 37.820,178.800 37.600 C 178.800 37.058,178.264 37.096,177.680 37.680 M175.680 41.680 C 175.096 42.264,175.058 42.800,175.600 42.800 C 175.820 42.800,175.955 42.575,175.900 42.300 C 175.845 42.025,176.025 41.845,176.300 41.900 C 176.575 41.955,176.800 41.820,176.800 41.600 C 176.800 41.058,176.264 41.096,175.680 41.680 M173.592 45.810 C 173.314 46.145,173.197 46.531,173.333 46.667 C 173.624 46.957,174.800 46.063,174.800 45.551 C 174.800 45.000,174.148 45.140,173.592 45.810 M171.592 49.810 C 171.314 50.145,171.197 50.531,171.333 50.667 C 171.624 50.957,172.800 50.063,172.800 49.551 C 172.800 49.000,172.148 49.140,171.592 49.810 M169.829 53.829 C 169.139 54.518,169.001 55.200,169.551 55.200 C 170.012 55.200,171.003 54.002,170.549 53.994 C 170.357 53.991,170.470 53.813,170.800 53.600 C 171.152 53.373,171.205 53.210,170.929 53.206 C 170.669 53.203,170.174 53.483,169.829 53.829 M167.680 57.680 C 167.096 58.264,167.058 58.800,167.600 58.800 C 167.820 58.800,167.955 58.575,167.900 58.300 C 167.845 58.025,168.025 57.845,168.300 57.900 C 168.575 57.955,168.800 57.820,168.800 57.600 C 168.800 57.058,168.264 57.096,167.680 57.680 M165.680 61.680 C 165.096 62.264,165.058 62.800,165.600 62.800 C 165.820 62.800,165.955 62.575,165.900 62.300 C 165.845 62.025,166.025 61.845,166.300 61.900 C 166.575 61.955,166.800 61.820,166.800 61.600 C 166.800 61.058,166.264 61.096,165.680 61.680 M163.680 65.680 C 163.096 66.264,163.058 66.800,163.600 66.800 C 163.820 66.800,163.955 66.575,163.900 66.300 C 163.845 66.025,164.025 65.845,164.300 65.900 C 164.575 65.955,164.800 65.820,164.800 65.600 C 164.800 65.058,164.264 65.096,163.680 65.680 M226.013 67.500 C 226.034 68.008,227.200 69.382,227.200 68.900 C 227.200 68.651,227.017 68.334,226.793 68.196 C 226.570 68.058,226.491 67.777,226.617 67.572 C 226.744 67.368,226.657 67.200,226.424 67.200 C 226.191 67.200,226.006 67.335,226.013 67.500 M161.829 69.829 C 161.139 70.518,161.001 71.200,161.551 71.200 C 162.012 71.200,163.003 70.002,162.549 69.994 C 162.357 69.991,162.470 69.813,162.800 69.600 C 163.152 69.373,163.205 69.210,162.929 69.206 C 162.669 69.203,162.174 69.483,161.829 69.829 M229.675 75.625 C 229.771 75.914,230.086 76.229,230.375 76.325 C 230.675 76.425,230.825 76.275,230.725 75.975 C 230.629 75.686,230.314 75.371,230.025 75.275 C 229.725 75.175,229.575 75.325,229.675 75.625 M231.675 79.625 C 231.771 79.914,232.086 80.229,232.375 80.325 C 232.675 80.425,232.825 80.275,232.725 79.975 C 232.629 79.686,232.314 79.371,232.025 79.275 C 231.725 79.175,231.575 79.325,231.675 79.625 M235.675 87.625 C 235.771 87.914,236.086 88.229,236.375 88.325 C 236.675 88.425,236.825 88.275,236.725 87.975 C 236.629 87.686,236.314 87.371,236.025 87.275 C 235.725 87.175,235.575 87.325,235.675 87.625 M152.043 90.844 C 150.796 91.856,151.113 92.171,152.400 91.200 C 152.943 90.790,153.301 90.368,153.194 90.262 C 153.087 90.156,152.570 90.418,152.043 90.844 M237.200 91.600 C 237.200 91.820,237.425 91.955,237.700 91.900 C 237.975 91.845,238.161 92.008,238.113 92.262 C 238.065 92.516,238.335 92.966,238.713 93.262 C 239.318 93.736,239.341 93.724,238.903 93.163 C 238.630 92.813,238.535 92.398,238.692 92.241 C 238.849 92.085,238.712 91.789,238.388 91.584 C 237.620 91.098,237.200 91.104,237.200 91.600 M239.200 95.551 C 239.200 96.063,240.376 96.957,240.667 96.667 C 240.957 96.376,240.063 95.200,239.551 95.200 C 239.358 95.200,239.200 95.358,239.200 95.551 M241.500 99.865 C 241.775 99.976,242.000 100.242,242.000 100.457 C 242.000 100.672,241.775 100.718,241.500 100.559 C 241.225 100.401,241.120 100.406,241.267 100.569 C 241.413 100.733,241.683 100.867,241.867 100.867 C 242.050 100.868,242.456 101.078,242.770 101.334 C 243.125 101.625,243.071 101.386,242.624 100.700 C 242.230 100.095,241.704 99.614,241.454 99.632 C 241.164 99.652,241.180 99.736,241.500 99.865 M243.304 104.322 C 243.338 104.775,243.494 105.065,243.651 104.969 C 243.807 104.872,244.220 105.077,244.568 105.425 C 244.915 105.773,245.200 105.896,245.200 105.698 C 245.200 105.501,244.759 104.926,244.221 104.420 C 243.270 103.526,243.244 103.524,243.304 104.322 M245.500 107.865 C 245.775 107.976,246.000 108.242,246.000 108.457 C 246.000 108.672,245.792 108.719,245.538 108.562 C 245.250 108.384,245.185 108.452,245.366 108.745 C 245.525 109.002,245.812 109.116,246.003 108.998 C 246.194 108.880,246.536 109.102,246.763 109.492 C 246.990 109.881,247.181 110.015,247.188 109.789 C 247.207 109.125,245.996 107.597,245.477 107.632 C 245.132 107.654,245.138 107.719,245.500 107.865 M135.384 123.627 C 135.239 123.861,135.216 124.149,135.333 124.267 C 135.620 124.553,136.400 124.048,136.400 123.576 C 136.400 123.065,135.709 123.099,135.384 123.627 M129.680 135.680 C 129.096 136.264,129.058 136.800,129.600 136.800 C 129.820 136.800,129.955 136.575,129.900 136.300 C 129.845 136.025,130.025 135.845,130.300 135.900 C 130.575 135.955,130.800 135.820,130.800 135.600 C 130.800 135.058,130.264 135.096,129.680 135.680 M128.495 139.466 C 127.687 139.792,127.084 141.146,127.794 141.042 C 128.535 140.933,128.933 140.534,129.043 139.788 C 129.090 139.465,129.100 139.214,129.065 139.232 C 129.029 139.249,128.773 139.355,128.495 139.466 M126.400 142.600 C 125.992 143.091,126.020 143.200,126.551 143.200 C 126.908 143.200,127.200 142.930,127.200 142.600 C 127.200 142.270,127.132 142.000,127.049 142.000 C 126.966 142.000,126.674 142.270,126.400 142.600 M121.592 151.810 C 121.314 152.145,121.197 152.531,121.333 152.667 C 121.624 152.957,122.800 152.063,122.800 151.551 C 122.800 151.000,122.148 151.140,121.592 151.810 M118.495 159.466 C 117.687 159.792,117.084 161.146,117.794 161.042 C 118.535 160.933,118.933 160.534,119.043 159.788 C 119.090 159.465,119.100 159.214,119.065 159.232 C 119.029 159.249,118.773 159.355,118.495 159.466 M116.495 163.466 C 115.687 163.792,115.084 165.146,115.794 165.042 C 116.535 164.933,116.933 164.534,117.043 163.788 C 117.090 163.465,117.100 163.214,117.065 163.232 C 117.029 163.249,116.773 163.355,116.495 163.466 M114.001 166.998 C 113.486 167.548,113.167 168.100,113.293 168.226 C 113.698 168.631,115.200 167.432,115.200 166.704 C 115.200 165.790,115.118 165.810,114.001 166.998 M110.111 176.100 C 109.362 177.069,109.033 177.846,109.590 177.331 C 109.869 177.073,110.301 176.909,110.549 176.966 C 110.797 177.022,110.857 176.991,110.683 176.896 C 110.509 176.800,110.576 176.470,110.832 176.161 C 111.106 175.831,111.133 175.600,110.898 175.600 C 110.678 175.600,110.324 175.825,110.111 176.100 M281.660 181.580 C 281.748 181.844,281.950 182.047,282.110 182.030 C 282.588 181.981,282.496 181.432,281.980 181.260 C 281.716 181.172,281.572 181.316,281.660 181.580 M199.206 182.611 C 199.198 183.178,200.369 184.800,200.787 184.800 C 200.975 184.800,201.089 184.528,201.041 184.196 C 200.938 183.500,200.003 182.449,199.994 183.020 C 199.991 183.229,199.813 183.130,199.600 182.800 C 199.387 182.470,199.209 182.385,199.206 182.611 M285.200 189.600 C 285.200 189.820,285.425 189.955,285.700 189.900 C 285.975 189.845,286.161 190.008,286.113 190.262 C 286.065 190.516,286.335 190.966,286.713 191.262 C 287.318 191.736,287.341 191.724,286.903 191.163 C 286.630 190.813,286.535 190.398,286.692 190.241 C 286.849 190.085,286.712 189.789,286.388 189.584 C 285.620 189.098,285.200 189.104,285.200 189.600 M203.206 191.071 C 203.203 191.331,203.483 191.826,203.829 192.171 C 204.174 192.517,204.669 192.797,204.929 192.794 C 205.243 192.790,205.222 192.675,204.866 192.449 C 204.572 192.263,204.347 191.996,204.366 191.855 C 204.385 191.715,204.285 191.615,204.145 191.634 C 204.004 191.653,203.737 191.428,203.551 191.134 C 203.325 190.778,203.210 190.757,203.206 191.071 M287.675 193.625 C 287.771 193.914,288.086 194.229,288.375 194.325 C 288.675 194.425,288.825 194.275,288.725 193.975 C 288.629 193.686,288.314 193.371,288.025 193.275 C 287.725 193.175,287.575 193.325,287.675 193.625 M205.659 195.178 C 206.458 196.460,207.014 196.612,207.092 195.571 C 207.133 195.024,206.971 194.802,206.626 194.934 C 206.336 195.046,205.862 194.927,205.573 194.669 C 205.241 194.372,205.272 194.558,205.659 195.178 M99.592 195.810 C 99.314 196.145,99.197 196.531,99.333 196.667 C 99.624 196.957,100.800 196.063,100.800 195.551 C 100.800 195.000,100.148 195.140,99.592 195.810 M289.200 197.551 C 289.200 198.063,290.376 198.957,290.667 198.667 C 290.957 198.376,290.063 197.200,289.551 197.200 C 289.358 197.200,289.200 197.358,289.200 197.551 M207.206 199.500 C 207.225 200.412,207.978 200.982,208.483 200.468 C 208.906 200.038,208.891 199.966,208.400 200.071 C 208.070 200.142,207.845 199.975,207.900 199.700 C 207.955 199.425,207.820 199.200,207.600 199.200 C 207.380 199.200,207.203 199.335,207.206 199.500 M98.080 200.080 C 97.382 200.778,97.486 201.024,98.500 201.074 C 98.995 201.099,99.167 201.029,98.883 200.920 C 98.486 200.768,98.475 200.592,98.832 200.161 C 99.399 199.478,98.752 199.408,98.080 200.080 M291.200 201.551 C 291.200 202.063,292.376 202.957,292.667 202.667 C 292.957 202.376,292.063 201.200,291.551 201.200 C 291.358 201.200,291.200 201.358,291.200 201.551 M209.600 203.205 C 209.600 203.334,209.816 203.656,210.080 203.920 C 210.756 204.596,211.021 204.519,211.088 203.627 C 211.128 203.092,210.908 202.872,210.373 202.912 C 209.948 202.944,209.600 203.076,209.600 203.205 M178.244 205.366 C 178.464 205.941,178.404 206.050,178.006 205.804 C 177.669 205.595,177.572 205.632,177.741 205.904 C 177.886 206.139,177.779 206.423,177.502 206.534 C 177.189 206.660,177.170 206.749,177.451 206.768 C 178.284 206.827,178.987 205.627,178.439 205.083 C 178.058 204.704,178.016 204.766,178.244 205.366 M293.502 205.466 C 293.779 205.577,293.886 205.861,293.741 206.096 C 293.584 206.349,293.665 206.407,293.938 206.238 C 294.192 206.081,294.400 206.173,294.400 206.443 C 294.400 206.713,294.516 206.818,294.657 206.676 C 294.993 206.340,294.034 205.191,293.451 205.232 C 293.170 205.251,293.189 205.340,293.502 205.466 M211.206 207.071 C 211.203 207.331,211.483 207.826,211.829 208.171 C 212.174 208.517,212.669 208.797,212.929 208.794 C 213.243 208.790,213.222 208.675,212.866 208.449 C 212.572 208.263,212.347 207.996,212.366 207.855 C 212.385 207.715,212.285 207.615,212.145 207.634 C 212.004 207.653,211.737 207.428,211.551 207.134 C 211.325 206.778,211.210 206.757,211.206 207.071 M94.100 208.777 C 92.919 209.762,92.958 210.037,94.197 209.462 C 94.745 209.208,95.195 208.775,95.197 208.500 C 95.201 207.869,95.184 207.873,94.100 208.777 M295.500 209.865 C 295.775 209.976,296.000 210.242,296.000 210.457 C 296.000 210.672,295.792 210.719,295.538 210.562 C 295.250 210.384,295.185 210.452,295.366 210.745 C 295.525 211.002,295.812 211.116,296.003 210.998 C 296.194 210.880,296.536 211.102,296.763 211.492 C 296.990 211.881,297.181 212.059,297.188 211.886 C 297.211 211.294,295.908 209.600,295.454 209.632 C 295.164 209.652,295.180 209.736,295.500 209.865 M176.741 211.056 C 176.416 212.199,176.852 212.865,177.611 212.385 C 178.347 211.919,178.915 211.891,178.641 212.333 C 178.528 212.517,178.652 212.695,178.918 212.730 C 179.183 212.764,179.850 212.854,180.400 212.928 C 182.075 213.156,182.843 215.049,181.656 216.024 C 181.136 216.451,180.883 216.800,181.094 216.800 C 181.941 216.800,182.838 215.289,182.586 214.285 C 182.076 212.253,179.242 210.785,177.686 211.747 C 177.439 211.899,177.199 211.628,177.120 211.106 C 176.985 210.206,176.982 210.206,176.741 211.056 M180.630 212.448 C 180.968 212.996,180.236 212.862,179.376 212.220 C 178.627 211.660,178.632 211.648,179.506 211.868 C 180.005 211.994,180.510 212.255,180.630 212.448 M213.260 211.980 C 213.432 212.496,213.981 212.588,214.030 212.110 C 214.047 211.950,213.844 211.748,213.580 211.660 C 213.316 211.572,213.172 211.716,213.260 211.980 M176.455 214.042 C 176.227 214.644,176.242 215.186,176.495 215.500 C 177.139 216.300,177.403 216.087,177.364 214.798 C 177.317 213.201,176.903 212.857,176.455 214.042 M297.500 213.865 C 297.775 213.976,298.000 214.242,298.000 214.457 C 298.000 214.672,297.792 214.719,297.538 214.562 C 297.250 214.384,297.185 214.452,297.366 214.745 C 297.525 215.002,297.812 215.116,298.003 214.998 C 298.194 214.880,298.536 215.102,298.763 215.492 C 298.990 215.881,299.181 216.015,299.188 215.789 C 299.207 215.125,297.996 213.597,297.477 213.632 C 297.132 213.654,297.138 213.719,297.500 213.865 M174.752 216.313 C 174.621 217.107,174.679 217.481,174.901 217.259 C 175.103 217.057,175.201 216.467,175.119 215.946 C 174.993 215.145,174.937 215.202,174.752 216.313 M215.206 215.500 C 215.225 216.412,215.978 216.982,216.483 216.468 C 216.906 216.038,216.891 215.966,216.400 216.071 C 216.070 216.142,215.845 215.975,215.900 215.700 C 215.955 215.425,215.820 215.200,215.600 215.200 C 215.380 215.200,215.203 215.335,215.206 215.500 M217.288 220.063 C 217.373 220.318,217.879 220.593,218.413 220.675 C 219.357 220.819,219.362 220.806,218.592 220.224 C 217.636 219.502,217.078 219.433,217.288 220.063 M301.500 221.865 C 301.775 221.976,302.000 222.242,302.000 222.457 C 302.000 222.672,301.792 222.719,301.538 222.562 C 301.250 222.384,301.185 222.452,301.366 222.745 C 301.525 223.002,301.812 223.116,302.003 222.998 C 302.194 222.880,302.536 223.102,302.763 223.492 C 302.990 223.881,303.181 224.059,303.188 223.886 C 303.211 223.294,301.908 221.600,301.454 221.632 C 301.164 221.652,301.180 221.736,301.500 221.865 M305.102 229.466 C 305.379 229.577,305.516 229.813,305.407 229.989 C 305.298 230.165,305.461 230.518,305.769 230.774 C 306.582 231.449,306.947 230.604,306.175 229.832 C 305.827 229.485,305.331 229.214,305.071 229.232 C 304.742 229.254,304.752 229.324,305.102 229.466 M81.384 231.627 C 81.239 231.861,81.216 232.149,81.333 232.267 C 81.620 232.553,82.400 232.048,82.400 231.576 C 82.400 231.065,81.709 231.099,81.384 231.627 M223.288 232.063 C 223.373 232.318,223.879 232.593,224.413 232.675 C 225.357 232.819,225.362 232.806,224.592 232.224 C 223.636 231.502,223.078 231.433,223.288 232.063 M160.832 242.820 C 160.814 243.381,160.584 244.056,160.320 244.320 C 159.955 244.685,159.953 244.800,160.312 244.800 C 160.856 244.800,161.379 243.086,161.071 242.317 C 160.957 242.033,160.849 242.259,160.832 242.820 M162.461 242.527 C 162.093 242.969,162.127 243.207,162.612 243.610 C 163.546 244.385,164.407 243.436,163.548 242.577 C 163.018 242.047,162.865 242.040,162.461 242.527 M166.080 243.680 C 165.392 244.368,165.488 245.810,166.265 246.451 C 166.867 246.947,166.886 246.916,166.465 246.126 C 166.144 245.523,166.121 244.934,166.390 244.226 C 166.827 243.077,166.775 242.985,166.080 243.680 M169.978 243.874 C 170.482 244.917,170.564 246.077,170.080 245.316 C 169.862 244.972,169.613 245.088,169.222 245.716 C 168.703 246.550,168.713 246.566,169.411 246.000 C 170.086 245.452,170.125 245.465,169.866 246.157 C 169.625 246.799,169.674 246.837,170.191 246.408 C 170.971 245.760,170.966 244.761,170.178 243.776 C 169.577 243.026,169.570 243.030,169.978 243.874 M167.078 244.444 C 166.243 244.930,166.825 246.000,167.925 246.000 C 168.426 246.000,168.396 245.884,167.776 245.428 C 167.022 244.871,167.028 244.844,168.000 244.453 C 168.550 244.232,168.730 244.045,168.400 244.038 C 168.070 244.030,167.475 244.213,167.078 244.444 M75.384 245.627 C 75.239 245.861,75.216 246.149,75.333 246.267 C 75.620 246.553,76.400 246.048,76.400 245.576 C 76.400 245.065,75.709 245.099,75.384 245.627 M73.384 249.627 C 73.239 249.861,73.216 250.149,73.333 250.267 C 73.620 250.553,74.400 250.048,74.400 249.576 C 74.400 249.065,73.709 249.099,73.384 249.627 M155.644 253.747 C 155.287 254.177,155.280 254.402,155.615 254.610 C 156.268 255.013,157.077 254.117,156.543 253.583 C 156.254 253.294,155.978 253.344,155.644 253.747 M283.784 256.027 C 283.639 256.261,283.616 256.549,283.733 256.667 C 284.020 256.953,284.800 256.448,284.800 255.976 C 284.800 255.465,284.109 255.499,283.784 256.027 M277.626 259.769 C 277.351 260.100,277.314 260.423,277.535 260.560 C 277.741 260.687,278.118 260.539,278.374 260.231 C 278.649 259.900,278.686 259.577,278.465 259.440 C 278.259 259.313,277.882 259.461,277.626 259.769 M153.900 260.013 C 155.392 260.612,156.388 263.127,155.416 263.838 C 154.412 264.572,153.423 264.551,152.786 263.783 C 152.436 263.361,152.144 263.296,151.864 263.576 C 150.858 264.582,154.007 265.150,155.427 264.219 C 157.159 263.084,155.966 259.564,153.871 259.625 L 153.000 259.651 153.900 260.013 M151.129 262.200 C 150.871 263.399,150.996 263.938,151.430 263.503 C 151.557 263.377,151.599 262.762,151.524 262.137 L 151.387 261.000 151.129 262.200 M272.244 263.366 C 272.464 263.941,272.404 264.050,272.006 263.804 C 271.667 263.594,271.572 263.632,271.743 263.908 C 271.890 264.145,271.693 264.422,271.305 264.523 C 270.715 264.677,270.707 264.715,271.251 264.754 C 272.243 264.824,273.050 263.689,272.439 263.083 C 272.058 262.704,272.016 262.766,272.244 263.366 M150.244 265.366 C 150.470 265.957,150.407 266.056,149.968 265.801 C 149.656 265.620,149.532 265.618,149.694 265.796 C 149.855 265.975,149.675 266.374,149.294 266.683 C 148.668 267.189,148.686 267.203,149.478 266.820 C 150.655 266.251,150.990 265.629,150.421 265.065 C 150.064 264.710,150.022 264.782,150.244 265.366 M266.267 268.267 C 266.120 268.413,266.021 268.998,266.046 269.567 C 266.084 270.398,266.131 270.444,266.289 269.800 C 266.398 269.360,266.669 268.775,266.892 268.500 C 267.314 267.980,266.760 267.774,266.267 268.267 M302.400 268.600 C 301.992 269.091,302.020 269.200,302.551 269.200 C 302.908 269.200,303.200 268.930,303.200 268.600 C 303.200 268.270,303.132 268.000,303.049 268.000 C 302.966 268.000,302.674 268.270,302.400 268.600 M271.010 268.784 C 270.838 269.062,270.892 269.409,271.129 269.556 C 271.366 269.703,271.738 270.268,271.955 270.811 L 272.349 271.800 272.375 270.776 C 272.407 269.454,271.455 268.064,271.010 268.784 M296.495 271.466 C 295.687 271.792,295.084 273.146,295.794 273.042 C 296.535 272.933,296.933 272.534,297.043 271.788 C 297.090 271.465,297.100 271.214,297.065 271.232 C 297.029 271.249,296.773 271.355,296.495 271.466 M272.128 273.500 C 271.714 274.828,271.725 274.911,272.230 274.224 C 272.708 273.573,273.039 272.000,272.698 272.000 C 272.642 272.000,272.385 272.675,272.128 273.500 M62.400 274.600 C 61.992 275.091,62.020 275.200,62.551 275.200 C 62.908 275.200,63.200 274.930,63.200 274.600 C 63.200 274.270,63.132 274.000,63.049 274.000 C 62.966 274.000,62.674 274.270,62.400 274.600 M267.200 275.026 C 267.200 276.405,269.900 277.533,270.577 276.437 C 270.700 276.238,270.479 276.159,270.085 276.262 C 269.679 276.368,269.045 276.092,268.622 275.625 C 267.912 274.839,267.200 274.540,267.200 275.026 M144.828 276.900 C 144.908 278.319,145.469 279.039,145.767 278.104 C 146.068 277.157,145.805 276.400,145.176 276.400 C 144.969 276.400,144.813 276.625,144.828 276.900 M245.656 277.141 C 245.910 277.548,246.497 278.111,246.959 278.391 C 247.548 278.747,247.448 278.525,246.625 277.650 C 245.288 276.227,244.986 276.069,245.656 277.141 M266.636 280.431 C 265.525 281.750,265.304 283.144,266.080 283.920 C 266.791 284.631,267.016 284.513,267.110 283.378 C 267.160 282.775,267.029 282.458,266.791 282.606 C 266.569 282.743,266.508 283.051,266.655 283.289 C 266.807 283.535,266.739 283.610,266.499 283.461 C 265.884 283.081,266.327 281.808,267.438 280.765 C 267.967 280.267,268.400 279.712,268.400 279.530 C 268.400 278.851,267.638 279.240,266.636 280.431 M269.600 279.600 C 269.600 279.820,269.825 279.955,270.100 279.900 C 270.375 279.845,270.551 280.038,270.490 280.330 C 270.430 280.621,270.573 280.740,270.810 280.594 C 271.111 280.408,271.099 280.160,270.770 279.764 C 270.227 279.109,269.600 279.021,269.600 279.600 M283.829 279.829 C 283.139 280.518,283.001 281.200,283.551 281.200 C 284.012 281.200,285.003 280.002,284.549 279.994 C 284.357 279.991,284.470 279.813,284.800 279.600 C 285.152 279.373,285.205 279.210,284.929 279.206 C 284.669 279.203,284.174 279.483,283.829 279.829 M142.498 280.666 C 141.532 281.055,142.461 281.600,144.090 281.600 C 144.994 281.600,145.615 281.718,145.470 281.863 C 145.325 282.008,145.368 282.323,145.564 282.563 C 147.566 285.012,145.291 287.272,142.325 285.780 C 141.083 285.155,141.040 285.155,141.645 285.787 C 142.426 286.603,145.394 287.069,146.098 286.485 C 147.845 285.035,146.382 281.217,144.076 281.206 C 143.297 281.203,142.854 281.036,143.000 280.800 C 143.267 280.367,143.249 280.363,142.498 280.666 M57.829 281.829 C 57.139 282.518,57.001 283.200,57.551 283.200 C 58.012 283.200,59.003 282.002,58.549 281.994 C 58.357 281.991,58.470 281.813,58.800 281.600 C 59.152 281.373,59.205 281.210,58.929 281.206 C 58.669 281.203,58.174 281.483,57.829 281.829 M271.820 282.587 C 272.139 283.350,272.400 284.790,272.400 285.787 C 272.400 286.784,272.547 287.600,272.727 287.600 C 273.171 287.600,272.617 283.154,272.038 282.071 C 271.314 280.718,271.176 281.045,271.820 282.587 M277.680 283.680 C 277.096 284.264,277.058 284.800,277.600 284.800 C 277.820 284.800,277.955 284.575,277.900 284.300 C 277.845 284.025,278.025 283.845,278.300 283.900 C 278.575 283.955,278.800 283.820,278.800 283.600 C 278.800 283.058,278.264 283.096,277.680 283.680 M142.400 284.600 C 142.400 284.915,142.775 285.373,143.234 285.618 C 144.382 286.233,144.415 285.968,143.320 284.914 C 142.669 284.288,142.400 284.196,142.400 284.600 M271.701 285.800 C 271.705 286.680,271.787 286.993,271.883 286.495 C 271.979 285.998,271.975 285.278,271.875 284.895 C 271.775 284.513,271.696 284.920,271.701 285.800 M267.275 290.025 C 267.371 290.314,267.686 290.629,267.975 290.725 C 268.275 290.825,268.425 290.675,268.325 290.375 C 268.229 290.086,267.914 289.771,267.625 289.675 C 267.325 289.575,267.175 289.725,267.275 290.025 M265.384 291.627 C 265.239 291.861,265.216 292.149,265.333 292.267 C 265.620 292.553,266.400 292.048,266.400 291.576 C 266.400 291.065,265.709 291.099,265.384 291.627 M335.660 291.580 C 335.748 291.844,335.950 292.047,336.110 292.030 C 336.588 291.981,336.496 291.432,335.980 291.260 C 335.716 291.172,335.572 291.316,335.660 291.580 M136.800 293.502 C 136.800 293.699,137.290 294.297,137.888 294.830 C 138.686 295.542,138.819 295.587,138.388 295.002 C 137.450 293.728,136.800 293.114,136.800 293.502 M135.037 296.044 C 134.624 296.745,134.491 297.191,134.742 297.036 C 135.002 296.875,135.200 296.994,135.200 297.310 C 135.200 297.616,135.454 297.867,135.765 297.867 C 136.195 297.867,136.243 297.639,135.965 296.907 C 135.505 295.699,135.507 295.495,135.972 295.783 C 136.177 295.909,136.475 295.802,136.634 295.545 C 136.807 295.266,136.751 295.183,136.496 295.341 C 136.261 295.486,136.006 295.417,135.929 295.188 C 135.853 294.958,135.451 295.344,135.037 296.044 M337.200 295.600 C 337.200 295.820,337.425 295.955,337.700 295.900 C 337.975 295.845,338.161 296.008,338.113 296.262 C 338.065 296.516,338.335 296.966,338.713 297.262 C 339.318 297.736,339.341 297.724,338.903 297.163 C 338.630 296.813,338.535 296.398,338.692 296.241 C 338.849 296.085,338.712 295.789,338.388 295.584 C 337.620 295.098,337.200 295.104,337.200 295.600 M133.784 298.027 C 133.639 298.261,133.616 298.549,133.733 298.667 C 134.020 298.953,134.800 298.448,134.800 297.976 C 134.800 297.465,134.109 297.499,133.784 298.027 M339.200 299.600 C 339.200 299.820,339.425 299.955,339.700 299.900 C 339.975 299.845,340.161 300.008,340.113 300.262 C 340.065 300.516,340.335 300.966,340.713 301.262 C 341.318 301.736,341.341 301.724,340.903 301.163 C 340.630 300.813,340.535 300.398,340.692 300.241 C 340.849 300.085,340.712 299.789,340.388 299.584 C 339.620 299.098,339.200 299.104,339.200 299.600 M257.206 301.500 C 257.225 302.412,257.978 302.982,258.483 302.468 C 258.906 302.038,258.891 301.966,258.400 302.071 C 258.070 302.142,257.845 301.975,257.900 301.700 C 257.955 301.425,257.820 301.200,257.600 301.200 C 257.380 301.200,257.203 301.335,257.206 301.500 M341.200 303.600 C 341.200 303.820,341.425 303.955,341.700 303.900 C 341.975 303.845,342.142 304.070,342.071 304.400 C 341.966 304.891,342.038 304.906,342.468 304.483 C 342.901 304.057,342.889 303.901,342.397 303.589 C 341.620 303.099,341.200 303.102,341.200 303.600 M259.200 305.351 C 259.200 305.984,260.311 307.023,260.637 306.696 C 260.903 306.430,259.929 304.800,259.504 304.800 C 259.337 304.800,259.200 305.048,259.200 305.351 M46.080 306.080 C 45.382 306.778,45.486 307.024,46.500 307.074 C 46.995 307.099,47.167 307.029,46.883 306.920 C 46.486 306.768,46.475 306.592,46.832 306.161 C 47.399 305.478,46.752 305.408,46.080 306.080 M343.200 307.600 C 343.200 307.820,343.425 307.955,343.700 307.900 C 343.975 307.845,344.161 308.008,344.113 308.262 C 344.065 308.516,344.335 308.966,344.713 309.262 C 345.318 309.736,345.341 309.724,344.903 309.163 C 344.630 308.813,344.535 308.398,344.692 308.241 C 344.849 308.085,344.712 307.789,344.388 307.584 C 343.620 307.098,343.200 307.104,343.200 307.600 M261.200 309.026 C 261.200 309.668,262.102 310.800,262.614 310.800 C 263.410 310.800,263.351 310.261,262.469 309.462 C 261.729 308.793,261.200 308.611,261.200 309.026 M44.080 310.080 C 43.382 310.778,43.486 311.024,44.500 311.074 C 44.995 311.099,45.167 311.029,44.883 310.920 C 44.486 310.768,44.475 310.592,44.832 310.161 C 45.399 309.478,44.752 309.408,44.080 310.080 M345.347 311.705 C 345.477 312.557,346.039 313.223,346.428 312.983 C 347.021 312.616,346.862 312.061,346.036 311.619 C 345.472 311.318,345.292 311.340,345.347 311.705 M232.080 314.080 C 231.382 314.778,231.486 315.024,232.500 315.074 C 232.995 315.099,233.167 315.029,232.883 314.920 C 232.486 314.768,232.475 314.592,232.832 314.161 C 233.399 313.478,232.752 313.408,232.080 314.080 M347.500 315.865 C 347.775 315.976,348.000 316.242,348.000 316.457 C 348.000 316.672,347.792 316.719,347.538 316.562 C 347.250 316.384,347.185 316.452,347.366 316.745 C 347.525 317.002,347.812 317.116,348.003 316.998 C 348.194 316.880,348.536 317.102,348.763 317.492 C 348.990 317.881,349.181 318.059,349.188 317.886 C 349.211 317.294,347.908 315.600,347.454 315.632 C 347.164 315.652,347.180 315.736,347.500 315.865 M190.218 317.297 C 190.408 317.797,190.217 318.102,189.542 318.372 C 188.932 318.616,188.830 318.758,189.251 318.775 C 190.253 318.814,191.046 317.685,190.439 317.083 C 190.058 316.705,190.010 316.751,190.218 317.297 M225.829 317.829 C 225.139 318.518,225.001 319.200,225.551 319.200 C 226.012 319.200,227.003 318.002,226.549 317.994 C 226.357 317.991,226.470 317.813,226.800 317.600 C 227.152 317.373,227.205 317.210,226.929 317.206 C 226.669 317.203,226.174 317.483,225.829 317.829 M219.592 321.810 C 219.314 322.145,219.197 322.531,219.333 322.667 C 219.624 322.957,220.800 322.063,220.800 321.551 C 220.800 321.000,220.148 321.140,219.592 321.810 M180.533 323.829 C 180.281 324.363,180.226 324.800,180.411 324.800 C 180.758 324.800,181.381 323.247,181.132 322.999 C 181.055 322.922,180.785 323.295,180.533 323.829 M213.680 325.680 C 213.096 326.264,213.058 326.800,213.600 326.800 C 213.820 326.800,213.955 326.575,213.900 326.300 C 213.845 326.025,214.025 325.845,214.300 325.900 C 214.575 325.955,214.800 325.820,214.800 325.600 C 214.800 325.058,214.264 325.096,213.680 325.680 M353.500 327.865 C 353.775 327.976,354.000 328.242,354.000 328.457 C 354.000 328.672,353.792 328.719,353.538 328.562 C 353.250 328.384,353.185 328.452,353.366 328.745 C 353.525 329.002,353.812 329.116,354.003 328.998 C 354.194 328.880,354.536 329.102,354.763 329.492 C 354.990 329.881,355.181 330.059,355.188 329.886 C 355.211 329.294,353.908 327.600,353.454 327.632 C 353.164 327.652,353.180 327.736,353.500 327.865 M207.384 329.627 C 207.239 329.861,207.216 330.149,207.333 330.267 C 207.620 330.553,208.400 330.048,208.400 329.576 C 208.400 329.065,207.709 329.099,207.384 329.627 M32.100 334.777 C 30.919 335.762,30.958 336.037,32.197 335.462 C 32.745 335.208,33.195 334.775,33.197 334.500 C 33.201 333.869,33.184 333.873,32.100 334.777 M155.784 340.027 C 155.639 340.261,155.616 340.549,155.733 340.667 C 156.020 340.953,156.800 340.448,156.800 339.976 C 156.800 339.465,156.109 339.499,155.784 340.027 M149.626 343.769 C 149.351 344.100,149.314 344.423,149.535 344.560 C 149.741 344.687,150.118 344.539,150.374 344.231 C 150.649 343.900,150.686 343.577,150.465 343.440 C 150.259 343.313,149.882 343.461,149.626 343.769 M144.218 347.297 C 144.408 347.797,144.217 348.102,143.542 348.372 C 142.932 348.616,142.830 348.758,143.251 348.775 C 144.253 348.814,145.046 347.685,144.439 347.083 C 144.058 346.705,144.010 346.751,144.218 347.297 M137.078 351.623 C 136.902 352.298,136.965 352.361,137.431 351.974 C 138.068 351.446,138.186 350.800,137.647 350.800 C 137.452 350.800,137.196 351.170,137.078 351.623 M174.080 352.080 C 173.382 352.778,173.486 353.024,174.500 353.074 C 174.995 353.099,175.167 353.029,174.883 352.920 C 174.486 352.768,174.475 352.592,174.832 352.161 C 175.399 351.478,174.752 351.408,174.080 352.080 M131.693 355.600 C 131.416 356.043,131.367 356.400,131.583 356.400 C 131.797 356.400,132.165 356.040,132.400 355.600 C 132.635 355.160,132.685 354.800,132.510 354.800 C 132.335 354.800,131.968 355.160,131.693 355.600 M20.339 358.723 C 20.003 359.202,19.609 359.476,19.464 359.331 C 19.319 359.186,19.200 359.277,19.200 359.533 C 19.200 360.144,19.627 360.105,20.542 359.413 C 20.950 359.104,21.209 358.626,21.117 358.351 C 21.008 358.024,20.738 358.153,20.339 358.723 M125.200 359.167 C 125.200 359.369,125.086 359.864,124.946 360.267 C 124.723 360.911,124.770 360.903,125.333 360.200 C 126.076 359.273,126.167 358.800,125.600 358.800 C 125.380 358.800,125.200 358.965,125.200 359.167 M162.495 359.466 C 161.687 359.792,161.084 361.146,161.794 361.042 C 162.535 360.933,162.933 360.534,163.043 359.788 C 163.090 359.465,163.100 359.214,163.065 359.232 C 163.029 359.249,162.773 359.355,162.495 359.466 M122.533 361.829 C 122.281 362.363,122.226 362.800,122.411 362.800 C 122.758 362.800,123.381 361.247,123.132 360.999 C 123.055 360.922,122.785 361.295,122.533 361.829 M17.680 363.680 C 17.096 364.264,17.058 364.800,17.600 364.800 C 17.820 364.800,17.955 364.575,17.900 364.300 C 17.845 364.025,18.025 363.845,18.300 363.900 C 18.575 363.955,18.800 363.820,18.800 363.600 C 18.800 363.058,18.264 363.096,17.680 363.680 M155.592 363.810 C 155.314 364.145,155.197 364.531,155.333 364.667 C 155.624 364.957,156.800 364.063,156.800 363.551 C 156.800 363.000,156.148 363.140,155.592 363.810 M116.533 365.829 C 116.281 366.363,116.226 366.800,116.411 366.800 C 116.758 366.800,117.381 365.247,117.132 364.999 C 117.055 364.922,116.785 365.295,116.533 365.829 M15.592 367.810 C 15.314 368.145,15.197 368.531,15.333 368.667 C 15.624 368.957,16.800 368.063,16.800 367.551 C 16.800 367.000,16.148 367.140,15.592 367.810 M149.384 367.627 C 149.239 367.861,149.216 368.149,149.333 368.267 C 149.620 368.553,150.400 368.048,150.400 367.576 C 150.400 367.065,149.709 367.099,149.384 367.627 M13.592 371.810 C 13.314 372.145,13.197 372.531,13.333 372.667 C 13.624 372.957,14.800 372.063,14.800 371.551 C 14.800 371.000,14.148 371.140,13.592 371.810 M143.384 371.627 C 143.239 371.861,143.216 372.149,143.333 372.267 C 143.620 372.553,144.400 372.048,144.400 371.576 C 144.400 371.065,143.709 371.099,143.384 371.627 M85.644 385.747 C 85.287 386.177,85.280 386.402,85.615 386.610 C 86.268 387.013,87.077 386.117,86.543 385.583 C 86.254 385.294,85.978 385.344,85.644 385.747 " stroke="none" fill="#ff0000" fill-rule="evenodd"></path><path id="path1" d="M192.485 7.933 C 192.087 8.300,191.959 8.510,192.200 8.400 C 192.441 8.290,192.314 8.499,191.919 8.864 C 191.428 9.318,191.200 10.110,191.200 11.364 C 191.200 12.374,191.020 13.223,190.800 13.250 C 190.580 13.278,190.175 13.322,189.900 13.350 C 189.374 13.403,189.330 13.566,189.250 15.772 C 189.210 16.872,189.021 17.170,188.300 17.272 C 187.535 17.381,187.382 17.680,187.280 19.262 C 187.177 20.857,187.019 21.159,186.180 21.369 C 185.333 21.582,185.200 21.845,185.200 23.313 C 185.200 24.690,185.030 25.085,184.300 25.405 C 183.581 25.721,183.376 26.178,183.279 27.679 C 183.193 29.014,183.009 29.501,182.643 29.361 C 182.108 29.156,181.126 30.060,181.233 30.658 C 181.441 31.816,181.144 33.613,180.782 33.389 C 180.101 32.968,179.324 33.909,179.288 35.199 C 179.239 36.908,178.829 37.999,178.276 37.892 C 178.014 37.841,177.845 38.025,177.900 38.300 C 177.955 38.575,177.820 38.800,177.600 38.800 C 177.380 38.800,177.197 39.295,177.194 39.900 C 177.187 41.068,176.742 42.025,176.155 42.134 C 175.960 42.170,175.845 42.335,175.900 42.500 C 175.955 42.665,175.820 42.800,175.600 42.800 C 175.380 42.800,175.200 43.539,175.200 44.443 C 175.200 45.723,175.070 46.036,174.613 45.860 C 174.290 45.736,173.902 45.835,173.751 46.079 C 173.575 46.364,173.678 46.419,174.038 46.232 C 174.347 46.072,174.285 46.199,173.900 46.514 C 173.515 46.830,173.200 47.572,173.200 48.162 C 173.200 48.775,172.770 49.666,172.200 50.236 C 171.650 50.786,171.200 51.694,171.200 52.254 C 171.200 52.814,170.877 53.571,170.481 53.936 C 170.086 54.301,169.959 54.510,170.200 54.400 C 170.441 54.290,170.314 54.499,169.919 54.864 C 169.523 55.229,169.197 55.859,169.194 56.264 C 169.187 57.112,168.672 58.038,168.155 58.134 C 167.960 58.170,167.845 58.335,167.900 58.500 C 167.955 58.665,167.820 58.800,167.600 58.800 C 167.380 58.800,167.197 59.295,167.194 59.900 C 167.187 61.068,166.742 62.025,166.155 62.134 C 165.960 62.170,165.845 62.335,165.900 62.500 C 165.955 62.665,165.820 62.800,165.600 62.800 C 165.380 62.800,165.197 63.295,165.194 63.900 C 165.187 65.068,164.742 66.025,164.155 66.134 C 163.960 66.170,163.845 66.335,163.900 66.500 C 163.955 66.665,163.820 66.800,163.600 66.800 C 163.380 66.800,163.200 67.356,163.200 68.036 C 163.200 68.716,162.877 69.571,162.481 69.936 C 162.086 70.301,161.959 70.510,162.200 70.400 C 162.441 70.290,162.314 70.499,161.919 70.864 C 161.431 71.315,161.200 72.109,161.200 73.336 C 161.200 74.907,161.082 75.161,160.300 75.272 C 159.539 75.380,159.382 75.681,159.282 77.213 C 159.189 78.634,158.973 79.110,158.282 79.413 C 157.619 79.704,157.371 80.200,157.281 81.413 C 157.192 82.626,156.944 83.122,156.281 83.413 C 155.619 83.704,155.371 84.200,155.281 85.413 C 155.192 86.626,154.944 87.122,154.281 87.413 C 153.645 87.692,153.366 88.208,153.278 89.269 C 153.192 90.301,152.865 90.927,152.178 91.378 C 151.429 91.868,151.200 92.369,151.200 93.514 C 151.200 94.682,151.003 95.097,150.300 95.405 C 149.605 95.710,149.372 96.187,149.277 97.500 C 149.209 98.435,148.984 99.222,148.777 99.250 C 148.570 99.278,148.181 99.323,147.913 99.350 C 147.635 99.379,147.362 100.173,147.276 101.200 C 147.106 103.255,147.122 103.223,146.137 103.368 C 145.368 103.481,145.332 103.577,145.250 105.705 C 145.214 106.647,144.949 107.120,144.300 107.405 C 143.617 107.705,143.371 108.189,143.281 109.413 C 143.192 110.626,142.944 111.122,142.281 111.413 C 141.619 111.704,141.371 112.200,141.281 113.413 C 141.192 114.626,140.944 115.122,140.281 115.413 C 139.797 115.626,139.341 116.219,139.268 116.732 C 139.195 117.245,138.784 118.016,138.353 118.447 C 137.923 118.877,137.678 119.403,137.809 119.615 C 137.940 119.827,137.877 120.000,137.668 120.000 C 137.460 120.000,137.297 120.225,137.307 120.500 C 137.367 122.101,137.159 123.625,136.900 123.487 C 136.549 123.300,135.449 124.444,135.291 125.161 C 135.231 125.433,134.771 126.048,134.269 126.528 C 133.637 127.133,133.322 127.952,133.242 129.200 C 133.112 131.246,133.123 131.223,132.159 131.365 C 131.665 131.437,131.404 131.891,131.314 132.835 C 131.117 134.895,130.819 136.006,130.493 135.898 C 130.332 135.844,130.170 135.960,130.134 136.155 C 130.098 136.351,129.883 136.625,129.656 136.766 C 129.429 136.906,129.198 137.789,129.142 138.727 C 129.085 139.692,128.772 140.644,128.421 140.917 C 127.865 141.350,127.862 141.317,128.393 140.600 C 128.980 139.808,128.977 139.808,128.093 140.562 C 127.602 140.981,127.200 141.734,127.200 142.234 C 127.200 142.874,126.932 143.182,126.300 143.272 C 125.545 143.379,125.368 143.707,125.200 145.310 C 125.090 146.360,124.861 147.211,124.692 147.201 C 124.344 147.181,123.272 148.094,123.286 148.400 C 123.392 150.735,123.134 152.060,122.613 151.860 C 122.290 151.736,121.902 151.835,121.751 152.079 C 121.575 152.364,121.678 152.419,122.038 152.232 C 122.347 152.072,122.285 152.199,121.900 152.514 C 121.471 152.866,121.200 153.641,121.200 154.515 C 121.200 155.554,120.933 156.152,120.216 156.716 C 119.541 157.247,119.201 157.952,119.133 158.965 C 119.079 159.776,118.756 160.656,118.417 160.920 C 117.868 161.347,117.863 161.312,118.377 160.600 L 118.953 159.800 118.093 160.600 C 117.559 161.097,117.195 161.976,117.133 162.920 C 117.079 163.756,116.756 164.656,116.417 164.920 C 115.865 165.349,115.863 165.315,116.393 164.600 C 116.980 163.808,116.977 163.808,116.093 164.562 C 115.551 165.025,115.200 165.778,115.200 166.480 C 115.200 167.358,115.032 167.607,114.500 167.518 C 114.023 167.437,113.837 167.623,113.918 168.100 C 113.982 168.485,113.859 168.800,113.643 168.800 C 113.427 168.800,113.194 169.385,113.125 170.100 C 113.056 170.815,112.861 171.351,112.692 171.292 C 111.996 171.046,111.336 172.268,111.248 173.965 C 111.196 174.960,110.977 175.987,110.760 176.248 C 110.544 176.509,110.509 176.800,110.683 176.896 C 110.857 176.991,110.797 177.022,110.549 176.966 C 109.857 176.808,109.200 177.654,109.200 178.704 C 109.200 179.257,109.027 179.541,108.782 179.389 C 107.965 178.884,107.326 180.022,107.262 182.096 C 107.209 183.810,107.012 184.351,106.198 185.015 C 105.649 185.463,105.200 186.237,105.200 186.734 C 105.200 187.231,104.750 188.055,104.200 188.565 C 103.410 189.297,103.200 189.882,103.200 191.346 C 103.200 193.057,103.123 193.200,102.200 193.200 C 101.318 193.200,101.200 193.370,101.200 194.643 C 101.200 195.747,101.062 196.033,100.613 195.860 C 100.290 195.736,99.902 195.835,99.751 196.079 C 99.575 196.364,99.678 196.419,100.038 196.232 C 100.347 196.072,100.285 196.199,99.900 196.514 C 99.470 196.866,99.200 197.642,99.200 198.520 C 99.200 199.308,99.001 200.076,98.757 200.226 C 98.448 200.417,98.478 200.611,98.857 200.867 C 99.300 201.166,99.289 201.222,98.800 201.169 C 97.358 201.015,97.200 201.216,97.200 203.200 C 97.200 205.067,97.133 205.200,96.200 205.200 C 95.273 205.200,95.200 205.340,95.200 207.105 C 95.200 208.697,95.052 209.075,94.300 209.405 C 93.617 209.705,93.371 210.189,93.281 211.413 C 93.192 212.626,92.944 213.122,92.281 213.413 C 91.619 213.704,91.371 214.200,91.281 215.413 C 91.192 216.626,90.944 217.122,90.281 217.413 C 89.607 217.709,89.371 218.199,89.277 219.500 C 89.168 221.002,89.040 221.200,88.177 221.200 C 87.273 221.200,87.200 221.348,87.200 223.172 C 87.200 224.913,87.094 225.159,86.300 225.272 C 85.537 225.381,85.370 225.704,85.200 227.400 C 85.090 228.500,84.820 229.372,84.600 229.338 C 84.380 229.304,83.968 229.529,83.684 229.838 C 83.401 230.147,83.306 230.400,83.473 230.400 C 83.641 230.400,83.193 230.934,82.478 231.588 C 81.763 232.241,81.183 232.871,81.189 232.988 C 81.339 235.831,81.133 237.549,80.664 237.369 C 80.113 237.158,79.124 238.048,79.233 238.658 C 79.613 240.771,79.132 243.154,78.303 243.272 C 77.674 243.362,77.329 243.760,77.150 244.600 C 77.010 245.260,76.873 245.665,76.847 245.500 C 76.730 244.754,75.360 246.725,75.274 247.765 C 75.221 248.405,74.733 249.342,74.189 249.845 C 73.564 250.425,73.200 251.200,73.200 251.953 C 73.200 252.884,73.003 253.172,72.300 253.272 C 71.353 253.407,71.329 253.467,71.250 255.987 C 71.214 257.137,71.052 257.518,70.664 257.369 C 70.113 257.158,69.124 258.048,69.233 258.658 C 69.468 259.967,69.099 261.055,68.300 261.405 C 67.605 261.710,67.372 262.187,67.277 263.500 C 67.209 264.435,66.984 265.223,66.777 265.250 C 66.570 265.278,66.175 265.322,65.900 265.350 C 65.336 265.406,65.319 265.496,65.250 268.772 C 65.205 270.910,65.111 271.157,64.300 271.272 C 63.534 271.381,63.382 271.679,63.279 273.275 C 63.177 274.856,63.021 275.169,62.279 275.275 C 61.536 275.381,61.381 275.693,61.278 277.300 C 61.168 279.015,61.061 279.200,60.178 279.200 C 59.392 279.200,59.200 279.404,59.200 280.236 C 59.200 280.806,58.877 281.571,58.481 281.936 C 58.086 282.301,57.959 282.510,58.200 282.400 C 58.441 282.290,58.314 282.499,57.919 282.864 C 57.523 283.229,57.200 283.904,57.200 284.364 C 57.200 284.989,56.948 285.200,56.200 285.200 C 55.261 285.200,55.197 285.333,55.150 287.400 C 55.084 290.306,55.089 290.280,54.419 290.880 C 53.918 291.329,53.911 291.304,54.368 290.700 C 54.660 290.315,54.725 290.000,54.513 290.000 C 53.893 290.000,53.200 291.910,53.200 293.619 C 53.200 295.029,53.094 295.200,52.222 295.200 C 51.339 295.200,51.232 295.385,51.122 297.100 C 51.018 298.721,50.868 299.019,50.100 299.128 C 49.306 299.241,49.200 299.487,49.200 301.228 C 49.200 303.065,49.131 303.200,48.200 303.200 C 47.327 303.200,47.200 303.375,47.200 304.576 C 47.200 305.333,47.001 306.076,46.757 306.226 C 46.448 306.417,46.478 306.611,46.857 306.867 C 47.300 307.166,47.289 307.222,46.800 307.169 C 45.587 307.040,45.368 307.226,45.273 308.473 C 45.220 309.174,44.994 309.966,44.771 310.235 C 44.491 310.572,44.526 310.792,44.883 310.949 C 45.251 311.111,45.227 311.166,44.800 311.141 C 43.505 311.064,43.346 311.264,43.252 313.090 C 43.141 315.222,43.142 315.221,42.146 315.367 C 41.597 315.447,41.384 315.904,41.273 317.237 C 41.106 319.252,41.121 319.224,40.137 319.368 C 39.368 319.481,39.332 319.577,39.250 321.705 C 39.214 322.647,38.949 323.120,38.300 323.405 C 37.617 323.705,37.371 324.189,37.281 325.413 C 37.192 326.626,36.944 327.122,36.281 327.413 C 35.615 327.706,35.351 328.240,35.200 329.600 C 35.090 330.590,34.820 331.372,34.600 331.338 C 33.747 331.207,33.200 332.209,33.200 333.905 C 33.200 334.668,32.921 335.133,32.300 335.405 C 31.608 335.709,31.372 336.188,31.278 337.475 C 31.178 338.849,30.999 339.173,30.278 339.275 C 29.538 339.380,29.381 339.694,29.279 341.275 C 29.177 342.856,29.021 343.169,28.279 343.275 C 27.540 343.380,27.368 343.719,27.200 345.400 C 27.090 346.500,26.820 347.372,26.600 347.338 C 26.204 347.277,25.175 348.192,25.192 348.592 C 25.271 350.556,25.116 351.047,24.300 351.405 C 23.690 351.673,23.360 352.209,23.277 353.066 C 23.210 353.763,22.760 354.759,22.277 355.280 C 21.795 355.801,21.337 356.851,21.260 357.614 C 21.117 359.031,20.537 359.732,19.857 359.312 C 19.648 359.182,19.605 359.284,19.762 359.538 C 19.919 359.792,19.895 360.000,19.709 360.000 C 19.523 360.000,19.328 360.585,19.275 361.300 C 19.139 363.169,18.820 363.997,18.276 363.892 C 18.014 363.841,17.845 364.025,17.900 364.300 C 17.955 364.575,17.820 364.800,17.600 364.800 C 17.380 364.800,17.200 365.348,17.200 366.018 C 17.200 366.784,16.829 367.608,16.200 368.236 C 15.650 368.786,15.200 369.686,15.200 370.236 C 15.200 370.786,14.762 371.674,14.227 372.209 C 13.693 372.744,13.198 373.681,13.127 374.291 C 13.057 374.901,12.820 375.372,12.600 375.338 C 12.204 375.277,11.175 376.192,11.192 376.592 C 11.282 378.815,11.138 379.662,10.698 379.493 C 9.793 379.146,9.384 380.155,9.258 383.044 C 9.156 385.378,9.250 385.934,9.784 386.139 C 11.852 386.932,85.802 386.426,86.464 385.614 C 86.829 385.166,87.392 384.800,87.715 384.800 C 88.482 384.800,89.341 383.752,89.011 383.218 C 88.848 382.955,89.335 382.800,90.327 382.800 C 91.925 382.800,93.090 381.993,92.611 381.218 C 92.453 380.962,92.828 380.800,93.576 380.800 C 94.249 380.800,94.823 380.620,94.850 380.400 C 94.877 380.180,94.923 379.835,94.950 379.633 C 95.034 379.018,95.391 378.829,96.651 378.733 C 97.810 378.644,99.217 377.647,98.800 377.210 C 98.690 377.094,99.095 376.943,99.700 376.873 C 100.305 376.804,100.822 376.579,100.850 376.373 C 100.877 376.168,100.923 375.835,100.950 375.633 C 101.034 375.018,101.391 374.829,102.651 374.733 C 103.877 374.639,104.644 374.126,104.645 373.400 C 104.645 373.180,105.175 372.904,105.823 372.787 C 106.659 372.636,106.966 372.373,106.881 371.882 C 106.749 371.108,107.160 370.896,109.200 370.690 C 109.970 370.611,110.623 370.334,110.650 370.074 C 110.678 369.813,110.722 369.432,110.750 369.227 C 110.778 369.021,111.295 368.796,111.900 368.727 C 112.505 368.657,113.022 368.375,113.050 368.100 C 113.078 367.825,113.123 367.431,113.150 367.224 C 113.178 367.017,113.875 366.792,114.700 366.724 C 115.792 366.634,116.305 366.360,116.587 365.718 C 116.811 365.208,117.401 364.786,117.987 364.718 C 118.544 364.653,119.022 364.375,119.050 364.100 C 119.078 363.825,119.123 363.431,119.150 363.224 C 119.178 363.017,119.875 362.792,120.700 362.724 C 121.803 362.633,122.305 362.362,122.595 361.700 C 122.836 361.151,123.340 360.800,123.887 360.800 C 124.511 360.800,124.861 360.495,125.036 359.800 C 125.255 358.926,125.505 358.800,127.016 358.800 C 128.504 358.800,128.762 358.675,128.872 357.900 C 128.962 357.270,129.313 356.964,130.044 356.879 C 130.660 356.807,131.302 356.357,131.611 355.779 C 132.001 355.051,132.466 354.800,133.424 354.800 C 134.466 354.800,134.761 354.608,134.964 353.800 C 135.148 353.069,135.483 352.800,136.208 352.800 C 136.753 352.800,137.179 352.665,137.153 352.500 C 136.931 351.099,137.248 350.800,138.957 350.800 C 140.497 350.800,140.744 350.677,140.964 349.800 C 141.120 349.179,141.499 348.800,141.963 348.800 C 142.375 348.800,143.055 348.485,143.475 348.100 C 143.894 347.715,143.959 347.580,143.619 347.800 C 143.079 348.149,143.071 348.110,143.549 347.500 C 143.851 347.115,144.594 346.800,145.200 346.800 C 146.391 346.800,147.428 345.893,147.011 345.218 C 146.858 344.970,147.160 344.800,147.753 344.800 C 148.303 344.800,148.866 344.617,149.004 344.393 C 149.142 344.170,149.410 344.083,149.600 344.200 C 149.790 344.317,150.075 344.202,150.234 343.945 C 150.414 343.654,150.350 343.583,150.066 343.759 C 149.786 343.932,149.689 343.834,149.814 343.507 C 149.927 343.213,150.481 342.935,151.045 342.888 C 152.429 342.773,152.800 342.496,152.800 341.576 C 152.800 340.980,153.079 340.800,154.000 340.800 C 155.156 340.800,156.979 339.512,156.500 339.033 C 156.372 338.905,156.711 338.800,157.253 338.800 C 158.430 338.800,159.220 338.116,158.926 337.351 C 158.743 336.875,160.777 336.495,161.339 336.900 C 161.710 337.168,162.725 335.869,162.533 335.371 C 162.373 334.952,162.645 334.800,163.557 334.800 C 164.677 334.800,165.004 334.466,164.844 333.489 C 164.779 333.092,165.440 332.868,167.200 332.690 C 167.970 332.611,168.623 332.334,168.650 332.074 C 168.678 331.813,168.722 331.420,168.750 331.200 C 168.778 330.980,169.250 330.800,169.800 330.800 C 170.696 330.800,170.997 330.422,170.844 329.489 C 170.779 329.092,171.440 328.868,173.200 328.690 C 173.970 328.611,174.623 328.334,174.650 328.074 C 174.678 327.813,174.722 327.432,174.750 327.227 C 174.778 327.021,175.295 326.796,175.900 326.727 C 176.505 326.657,177.023 326.375,177.050 326.100 C 177.078 325.825,177.123 325.431,177.150 325.224 C 177.178 325.017,177.875 324.792,178.700 324.724 C 179.792 324.634,180.305 324.360,180.587 323.718 C 180.804 323.224,181.403 322.784,181.951 322.718 C 182.540 322.647,182.970 322.307,183.034 321.863 C 183.178 320.865,183.193 320.856,185.101 320.744 C 186.023 320.689,186.699 320.566,186.603 320.470 C 186.220 320.087,187.274 318.800,187.970 318.800 C 188.378 318.800,189.055 318.485,189.475 318.100 C 189.894 317.715,190.041 317.490,189.800 317.600 C 189.559 317.710,189.641 317.530,189.981 317.200 C 190.731 316.473,190.832 314.390,190.151 313.700 C 189.764 313.308,182.886 313.200,158.452 313.200 C 141.289 313.200,127.179 313.065,127.095 312.900 C 126.773 312.266,127.429 310.600,128.000 310.600 C 128.330 310.600,128.602 310.298,128.605 309.928 C 128.611 309.097,128.922 308.770,129.830 308.637 C 130.586 308.526,130.734 308.093,131.077 305.003 C 131.227 303.657,131.552 302.828,132.076 302.461 C 132.504 302.162,132.760 301.671,132.644 301.371 C 132.529 301.071,132.599 300.724,132.800 300.600 C 133.001 300.476,133.076 300.143,132.968 299.861 C 132.860 299.579,133.183 298.889,133.686 298.328 C 134.641 297.262,134.905 296.670,134.947 295.500 C 134.970 294.838,135.996 294.529,136.499 295.033 C 136.627 295.161,136.479 295.871,136.170 296.611 C 135.726 297.672,135.712 298.023,136.104 298.267 C 138.398 299.701,139.642 297.271,137.701 295.146 C 136.880 294.247,136.769 293.806,136.941 292.146 C 137.053 291.076,137.156 289.898,137.172 289.528 C 137.188 289.147,137.590 288.800,138.100 288.728 C 138.595 288.658,139.005 288.330,139.011 288.000 C 139.026 287.124,139.597 286.351,140.030 286.619 C 140.594 286.967,141.096 285.387,141.182 283.000 C 141.218 281.977,141.285 281.905,141.637 282.508 C 141.863 282.898,141.933 283.581,141.791 284.027 C 141.443 285.124,142.196 285.925,143.870 286.240 C 145.629 286.569,146.215 286.008,146.055 284.146 C 145.959 283.037,146.053 282.782,146.465 283.024 C 146.759 283.196,146.652 282.941,146.227 282.457 C 145.649 281.798,145.073 281.599,143.938 281.666 C 142.193 281.769,141.488 281.319,142.503 280.750 C 142.886 280.536,143.200 280.009,143.200 279.580 C 143.200 279.151,143.380 278.778,143.600 278.750 C 143.820 278.723,144.225 278.677,144.500 278.648 C 144.775 278.620,145.014 278.147,145.032 277.598 C 145.183 272.801,145.184 272.800,145.957 272.800 C 146.834 272.800,147.200 272.053,147.200 270.262 C 147.200 269.326,147.438 268.885,148.100 268.595 C 148.595 268.378,149.003 267.927,149.007 267.593 C 149.011 267.259,149.416 266.584,149.907 266.093 C 150.398 265.602,150.821 264.885,150.846 264.500 C 150.872 264.115,150.934 263.620,150.985 263.400 C 151.036 263.180,151.106 262.486,151.139 261.857 C 151.181 261.065,151.369 260.779,151.751 260.926 C 152.054 261.042,152.474 260.966,152.684 260.756 C 153.297 260.143,154.311 260.768,154.750 262.030 C 155.134 263.129,154.030 264.564,153.336 263.869 C 153.228 263.761,153.512 263.555,153.967 263.411 C 154.751 263.162,154.761 263.086,154.173 261.949 C 153.372 260.399,152.600 260.679,152.600 262.518 C 152.600 264.179,152.143 263.975,151.891 262.200 L 151.720 261.000 151.660 262.276 C 151.583 263.905,152.758 264.692,154.480 264.166 C 156.094 263.674,155.584 260.612,153.814 260.168 C 152.328 259.795,152.277 256.800,153.757 256.800 C 154.623 256.800,155.178 255.946,155.367 254.320 C 155.385 254.166,155.661 253.806,155.981 253.520 C 156.486 253.067,156.489 253.104,156.003 253.800 C 155.477 254.553,155.486 254.562,156.155 253.953 C 156.622 253.528,156.941 252.480,157.084 250.905 C 157.255 249.020,157.441 248.516,157.951 248.553 C 158.309 248.579,158.602 248.299,158.605 247.928 C 158.608 247.559,158.743 247.124,158.905 246.962 C 159.067 246.799,159.200 246.290,159.200 245.830 C 159.200 245.369,159.538 244.782,159.950 244.524 C 160.417 244.232,160.805 243.361,160.976 242.220 C 161.127 241.210,161.375 240.459,161.526 240.550 C 161.799 240.716,162.824 239.803,162.808 239.408 C 162.804 239.294,162.813 239.155,162.830 239.100 C 162.846 239.045,162.940 238.564,163.038 238.032 C 163.136 237.500,163.584 236.806,164.035 236.491 C 164.485 236.175,164.757 235.666,164.639 235.358 C 164.522 235.051,164.599 234.800,164.813 234.800 C 165.026 234.800,165.179 234.665,165.153 234.500 C 164.965 233.312,165.277 232.495,165.900 232.544 C 166.285 232.575,166.624 232.330,166.654 232.000 C 166.683 231.670,166.742 231.310,166.784 231.200 C 166.825 231.090,166.940 230.561,167.039 230.024 C 167.242 228.919,167.479 228.600,168.095 228.600 C 168.331 228.600,168.576 228.330,168.641 228.000 C 169.129 225.501,169.337 224.979,170.049 224.481 C 170.492 224.171,170.764 223.683,170.654 223.398 C 170.545 223.112,170.578 222.756,170.728 222.606 C 170.877 222.456,171.023 222.168,171.050 221.967 C 171.078 221.765,171.123 221.433,171.150 221.228 C 171.178 221.023,171.605 220.798,172.100 220.728 C 172.595 220.658,173.023 220.375,173.050 220.100 C 173.078 219.825,173.123 219.319,173.150 218.976 C 173.178 218.633,173.335 218.435,173.500 218.534 C 173.826 218.732,174.558 218.007,174.669 217.376 C 174.707 217.161,174.843 216.093,174.971 215.004 C 175.100 213.915,175.499 212.749,175.859 212.412 C 176.423 211.883,176.469 211.882,176.192 212.400 C 176.016 212.730,176.026 212.860,176.214 212.688 C 176.607 212.330,176.712 211.826,177.014 208.832 C 177.148 207.506,177.484 206.481,177.878 206.193 C 178.275 205.902,178.398 205.521,178.199 205.199 C 177.986 204.854,178.033 204.773,178.338 204.962 C 178.592 205.119,178.814 205.102,178.831 204.924 C 178.942 203.740,179.280 203.161,180.608 201.871 C 181.431 201.072,182.306 200.532,182.552 200.673 C 182.799 200.813,182.867 200.781,182.703 200.601 C 182.540 200.421,182.606 200.034,182.848 199.742 C 183.091 199.449,183.180 198.924,183.045 198.573 C 182.579 197.358,183.231 194.977,184.139 194.578 C 184.994 194.203,185.065 194.015,185.154 191.900 C 185.187 191.106,185.409 190.800,185.953 190.800 C 186.751 190.800,187.185 189.784,187.195 187.900 C 187.199 187.091,187.400 186.800,187.953 186.800 C 188.751 186.800,189.185 185.784,189.195 183.900 C 189.199 183.091,189.400 182.800,189.953 182.800 C 190.751 182.800,191.185 181.784,191.195 179.900 C 191.199 179.068,191.395 178.800,192.000 178.800 C 192.483 178.800,192.813 178.522,192.833 178.100 C 192.922 176.212,193.318 174.993,193.997 174.517 C 194.409 174.229,194.823 173.590,194.918 173.096 C 195.042 172.452,195.106 172.566,195.146 173.500 C 195.192 174.605,195.350 174.800,196.200 174.800 C 197.133 174.800,197.200 174.933,197.200 176.800 C 197.200 178.667,197.267 178.800,198.200 178.800 C 199.098 178.800,199.200 178.961,199.200 180.381 C 199.200 182.090,199.893 184.000,200.513 184.000 C 200.725 184.000,200.651 183.685,200.349 183.300 C 199.867 182.686,199.876 182.659,200.417 183.080 C 200.756 183.344,201.078 184.214,201.132 185.013 C 201.191 185.901,201.613 186.881,202.215 187.529 C 202.775 188.134,203.200 189.076,203.200 189.714 C 203.200 190.378,203.609 191.245,204.200 191.836 C 204.750 192.386,205.200 193.157,205.200 193.548 C 205.200 193.940,205.650 194.683,206.200 195.200 C 206.888 195.846,207.200 196.566,207.200 197.506 C 207.200 198.307,207.497 199.146,207.919 199.536 C 208.314 199.901,208.441 200.110,208.200 200.000 C 207.959 199.890,208.086 200.099,208.481 200.464 C 208.877 200.829,209.200 201.433,209.200 201.807 C 209.200 202.180,209.650 202.839,210.200 203.271 C 210.924 203.841,211.200 204.442,211.200 205.447 C 211.200 206.396,211.517 207.154,212.200 207.836 C 212.836 208.472,213.200 209.287,213.200 210.074 C 213.200 210.768,213.508 211.564,213.900 211.886 C 214.285 212.201,214.347 212.328,214.038 212.168 C 213.656 211.970,213.573 212.033,213.779 212.365 C 213.945 212.634,214.333 212.758,214.640 212.640 C 215.054 212.481,215.200 212.788,215.200 213.813 C 215.200 214.576,215.391 215.200,215.624 215.200 C 215.857 215.200,215.944 215.368,215.817 215.573 C 215.690 215.778,215.931 216.187,216.353 216.482 C 216.774 216.777,217.182 217.554,217.259 218.209 C 217.337 218.864,217.670 219.638,218.000 219.930 C 218.440 220.318,218.450 220.381,218.038 220.168 C 217.678 219.981,217.575 220.036,217.751 220.321 C 217.902 220.565,218.290 220.664,218.613 220.540 C 219.140 220.337,219.486 221.872,219.240 223.321 C 219.210 223.498,219.459 223.916,219.793 224.250 C 220.127 224.584,220.400 224.718,220.400 224.549 C 220.400 223.549,221.188 225.256,221.257 226.407 C 221.348 227.903,221.887 228.917,222.418 228.589 C 222.858 228.317,223.092 228.764,223.260 230.200 C 223.337 230.860,223.670 231.638,224.000 231.930 C 224.440 232.318,224.450 232.381,224.038 232.168 C 223.678 231.981,223.575 232.036,223.751 232.321 C 223.902 232.565,224.290 232.664,224.613 232.540 C 225.134 232.340,225.495 234.134,225.247 235.700 C 225.221 235.865,225.391 236.000,225.624 236.000 C 225.857 236.000,225.919 236.208,225.762 236.462 C 225.605 236.716,225.648 236.818,225.857 236.688 C 226.592 236.234,227.125 237.017,227.272 238.763 C 227.383 240.095,227.597 240.553,228.146 240.633 C 229.126 240.777,229.149 240.815,229.264 242.515 C 229.319 243.332,229.517 244.000,229.705 244.000 C 229.893 244.000,229.919 244.208,229.762 244.462 C 229.605 244.716,229.648 244.818,229.857 244.688 C 230.599 244.230,231.158 245.042,231.257 246.723 C 231.339 248.111,231.524 248.466,232.258 248.650 C 232.982 248.832,233.181 249.200,233.279 250.538 C 233.371 251.800,233.612 252.293,234.281 252.587 C 234.944 252.878,235.192 253.374,235.281 254.587 C 235.371 255.800,235.619 256.296,236.281 256.587 C 236.944 256.878,237.192 257.374,237.281 258.587 C 237.371 259.800,237.619 260.296,238.281 260.587 C 238.944 260.878,239.192 261.374,239.281 262.587 C 239.371 263.811,239.617 264.295,240.300 264.595 C 241.114 264.952,241.534 266.685,241.247 268.500 C 241.221 268.665,241.650 268.800,242.200 268.800 C 243.133 268.800,243.200 268.933,243.200 270.800 C 243.200 272.667,243.267 272.800,244.200 272.800 C 245.115 272.800,245.200 272.949,245.200 274.561 C 245.200 276.112,245.355 276.420,246.500 277.145 C 247.215 277.597,247.755 278.110,247.700 278.284 C 247.645 278.458,248.275 278.600,249.100 278.600 C 250.007 278.600,250.620 278.402,250.650 278.100 C 250.678 277.825,250.722 277.420,250.750 277.200 C 250.778 276.980,251.247 276.800,251.792 276.800 C 252.517 276.800,252.852 276.531,253.036 275.800 C 253.273 274.855,254.796 274.422,256.600 274.786 C 256.820 274.830,256.871 274.738,256.714 274.581 C 256.234 274.101,257.178 272.800,258.006 272.800 C 258.503 272.800,258.876 272.438,259.036 271.800 C 259.255 270.926,259.505 270.800,261.016 270.800 C 262.495 270.800,262.763 270.672,262.872 269.915 C 263.118 268.214,265.464 268.209,265.740 269.909 C 265.864 270.674,266.227 271.592,266.546 271.950 C 266.865 272.307,267.187 273.050,267.263 273.600 C 267.338 274.150,267.678 274.870,268.019 275.200 C 268.577 275.741,268.577 275.763,268.019 275.419 C 267.511 275.107,267.489 275.138,267.895 275.594 C 269.001 276.837,271.761 275.632,270.922 274.273 C 270.787 274.055,270.873 273.998,271.114 274.147 C 272.241 274.844,272.355 271.540,271.263 269.800 C 271.125 269.580,270.995 268.950,270.975 268.400 C 270.902 266.481,270.189 265.232,269.129 265.168 C 268.838 265.150,269.410 264.924,270.400 264.665 C 271.588 264.354,272.186 263.985,272.158 263.579 C 272.132 263.192,272.502 262.934,273.158 262.882 C 274.237 262.795,275.333 261.739,274.964 261.141 C 274.848 260.953,275.203 260.800,275.753 260.800 C 276.303 260.800,276.866 260.617,277.004 260.393 C 277.142 260.170,277.410 260.083,277.600 260.200 C 277.790 260.317,278.075 260.202,278.234 259.945 C 278.414 259.654,278.350 259.583,278.066 259.759 C 277.786 259.932,277.689 259.834,277.814 259.507 C 277.927 259.213,278.492 258.934,279.069 258.886 C 280.375 258.778,281.303 258.045,281.031 257.336 C 280.883 256.950,281.221 256.800,282.236 256.800 C 283.212 256.800,283.558 256.656,283.358 256.332 C 283.165 256.020,283.284 255.947,283.714 256.112 C 284.189 256.294,284.294 256.189,284.112 255.714 C 283.947 255.284,284.020 255.165,284.332 255.358 C 284.589 255.517,284.800 255.457,284.800 255.224 C 284.800 254.991,285.250 254.800,285.800 254.800 C 286.350 254.800,286.822 254.620,286.850 254.400 C 286.877 254.180,286.923 253.835,286.950 253.633 C 287.034 253.018,287.391 252.829,288.651 252.733 C 289.848 252.641,290.917 251.901,290.708 251.308 C 290.649 251.139,291.095 250.943,291.700 250.873 C 292.305 250.804,292.822 250.579,292.850 250.373 C 292.877 250.168,292.923 249.835,292.950 249.633 C 293.034 249.018,293.391 248.829,294.651 248.733 C 295.838 248.642,296.900 247.915,296.731 247.308 C 296.684 247.139,297.175 246.904,297.823 246.787 C 298.659 246.636,298.966 246.373,298.881 245.882 C 298.749 245.108,299.160 244.896,301.200 244.690 C 301.970 244.611,302.623 244.334,302.650 244.074 C 302.678 243.813,302.723 243.420,302.750 243.200 C 302.778 242.980,303.250 242.800,303.800 242.800 C 304.600 242.800,304.800 242.600,304.800 241.800 C 304.800 240.933,304.987 240.793,306.200 240.750 C 308.438 240.670,308.516 240.640,308.679 239.800 C 309.170 237.270,309.045 235.001,308.435 235.378 C 307.809 235.766,307.177 234.844,307.125 233.466 C 307.095 232.654,306.831 231.792,306.539 231.550 C 306.248 231.308,306.104 230.956,306.220 230.768 C 306.336 230.580,306.064 230.197,305.616 229.917 C 305.167 229.637,304.800 228.984,304.800 228.466 C 304.800 227.862,304.514 227.450,304.000 227.316 C 303.334 227.142,302.831 225.345,303.268 224.700 C 303.471 224.399,302.308 222.823,301.943 222.904 C 301.704 222.957,301.426 222.550,301.323 222.000 C 301.221 221.450,301.093 220.754,301.038 220.454 C 300.984 220.154,300.564 219.614,300.104 219.254 C 299.626 218.880,299.190 217.976,299.084 217.142 C 298.870 215.451,298.489 214.698,298.000 215.000 C 297.810 215.117,297.525 215.002,297.366 214.745 C 297.185 214.452,297.250 214.384,297.538 214.562 C 297.792 214.719,298.000 214.672,298.000 214.457 C 298.000 214.242,297.831 214.007,297.624 213.933 C 297.416 213.860,297.154 213.283,297.041 212.651 C 296.814 211.384,296.550 211.000,295.905 211.000 C 295.455 211.000,295.337 210.560,294.846 207.076 C 294.821 206.898,294.592 206.881,294.338 207.038 C 294.033 207.227,293.986 207.146,294.199 206.801 C 294.398 206.480,294.276 206.098,293.882 205.810 C 293.530 205.553,293.153 204.853,293.044 204.254 C 292.936 203.656,292.486 202.859,292.046 202.483 C 291.605 202.107,291.160 201.211,291.056 200.491 C 290.952 199.771,290.498 198.871,290.047 198.491 C 289.596 198.111,289.146 197.260,289.046 196.600 C 288.947 195.940,288.830 195.310,288.786 195.200 C 288.741 195.090,288.727 194.865,288.753 194.700 C 288.779 194.535,288.625 194.400,288.410 194.400 C 288.196 194.400,287.741 193.860,287.400 193.200 C 287.059 192.540,286.902 192.000,287.052 192.000 C 287.201 192.000,286.981 191.609,286.562 191.131 C 286.086 190.588,286.025 190.392,286.400 190.608 C 286.916 190.905,286.924 190.860,286.455 190.281 C 286.155 189.911,285.750 189.707,285.555 189.828 C 285.360 189.949,285.178 189.587,285.150 189.024 C 285.100 188.009,284.993 187.385,284.800 187.000 C 284.745 186.890,284.678 186.630,284.650 186.423 C 284.623 186.215,284.191 185.665,283.691 185.199 C 283.191 184.733,282.879 184.195,282.998 184.004 C 283.116 183.812,283.038 183.547,282.824 183.415 C 282.610 183.283,282.529 182.928,282.645 182.628 C 282.760 182.327,282.634 181.945,282.365 181.779 C 282.033 181.573,281.970 181.656,282.168 182.038 C 282.328 182.347,282.176 182.251,281.830 181.824 C 281.266 181.128,281.026 180.241,281.300 179.861 C 281.355 179.785,281.153 179.425,280.851 179.061 C 280.549 178.698,280.442 178.400,280.612 178.400 C 280.783 178.400,280.544 178.072,280.082 177.671 C 279.339 177.026,279.126 176.484,278.641 174.000 C 278.576 173.670,278.331 173.400,278.095 173.400 C 277.344 173.400,277.272 173.232,276.641 170.000 C 276.576 169.670,276.331 169.400,276.095 169.400 C 275.468 169.400,275.277 169.118,275.003 167.791 C 274.868 167.136,274.701 166.330,274.632 166.000 C 274.563 165.670,274.212 165.425,273.853 165.456 C 273.494 165.486,273.186 165.216,273.169 164.856 C 273.153 164.495,273.063 163.885,272.969 163.500 C 272.876 163.115,272.738 162.485,272.662 162.100 C 272.586 161.715,272.271 161.400,271.962 161.400 C 271.609 161.400,271.248 160.657,270.991 159.400 C 270.767 158.300,270.377 157.400,270.125 157.400 C 269.465 157.400,269.300 157.147,269.077 155.800 C 268.789 154.062,268.368 153.172,267.955 153.428 C 267.552 153.677,267.318 153.168,267.023 151.400 C 266.913 150.740,266.457 149.900,266.010 149.534 C 265.306 148.959,265.054 148.123,264.845 145.676 C 264.820 145.388,264.656 145.242,264.481 145.350 C 263.592 145.899,263.114 144.825,262.845 141.676 C 262.820 141.388,262.656 141.242,262.481 141.350 C 261.667 141.853,260.940 140.162,260.815 137.476 C 260.807 137.298,260.656 137.242,260.481 137.350 C 259.670 137.851,258.951 136.189,258.815 133.500 C 258.807 133.335,258.440 133.200,258.000 133.200 C 257.395 133.200,257.199 132.932,257.195 132.100 C 257.187 130.640,256.777 129.167,256.435 129.378 C 255.813 129.763,255.219 128.871,255.109 127.385 C 255.020 126.194,254.768 125.702,254.095 125.405 C 253.504 125.144,253.183 124.635,253.150 123.905 C 253.060 121.923,253.010 121.805,252.100 121.405 C 251.503 121.143,251.183 120.638,251.150 119.905 C 251.067 118.070,251.032 117.979,250.125 117.277 C 249.600 116.871,249.192 116.040,249.105 115.200 C 249.004 114.230,248.689 113.679,248.080 113.405 C 247.351 113.078,246.831 111.346,247.268 110.700 C 247.473 110.396,246.303 108.813,246.008 108.995 C 245.814 109.115,245.525 109.002,245.366 108.745 C 245.185 108.452,245.250 108.384,245.538 108.562 C 245.792 108.719,246.000 108.672,246.000 108.457 C 246.000 108.242,245.831 108.007,245.624 107.933 C 245.416 107.860,245.153 107.275,245.038 106.632 C 244.838 105.519,244.107 104.687,243.602 104.999 C 243.472 105.079,243.342 104.842,243.312 104.472 C 243.118 102.042,242.695 101.000,241.905 101.000 C 241.489 101.000,241.363 100.601,241.054 98.307 C 240.973 97.706,240.529 96.896,240.067 96.507 C 239.605 96.118,239.169 95.325,239.099 94.744 C 239.029 94.164,238.708 93.364,238.386 92.967 C 237.869 92.332,237.871 92.288,238.400 92.600 C 238.916 92.904,238.924 92.860,238.455 92.281 C 238.155 91.911,237.750 91.707,237.555 91.828 C 237.360 91.949,237.178 91.677,237.150 91.224 C 237.102 90.436,237.016 89.956,236.803 89.300 C 236.749 89.135,236.727 88.865,236.753 88.700 C 236.779 88.535,236.626 88.400,236.414 88.400 C 236.202 88.400,235.829 88.028,235.586 87.574 C 235.187 86.828,235.053 86.388,234.623 84.400 C 234.552 84.070,234.305 83.841,234.075 83.891 C 233.675 83.977,232.547 81.326,232.718 80.700 C 232.763 80.535,232.625 80.400,232.410 80.400 C 232.196 80.400,231.741 79.860,231.400 79.200 C 231.059 78.540,230.896 78.000,231.039 78.000 C 231.181 78.000,231.097 77.758,230.852 77.463 C 230.607 77.168,230.525 76.808,230.670 76.663 C 230.815 76.518,230.713 76.400,230.443 76.400 C 230.173 76.400,230.063 76.222,230.197 76.005 C 230.337 75.778,230.177 75.711,229.821 75.847 C 229.364 76.023,229.187 75.811,229.150 75.043 C 229.084 73.667,229.044 73.489,228.670 72.900 C 228.496 72.625,228.481 72.400,228.638 72.400 C 228.794 72.400,228.544 72.072,228.082 71.671 C 227.346 71.033,226.823 69.685,226.704 68.118 C 226.683 67.852,226.517 67.728,226.333 67.841 C 226.150 67.955,226.000 67.846,226.000 67.600 C 226.000 67.354,225.820 67.264,225.600 67.400 C 225.380 67.536,225.178 67.277,225.150 66.824 C 225.080 65.667,225.030 65.466,224.670 64.900 C 224.496 64.625,224.461 64.400,224.592 64.400 C 224.724 64.400,224.599 64.149,224.316 63.842 C 224.032 63.535,223.665 63.366,223.500 63.466 C 223.335 63.565,223.187 63.322,223.170 62.924 C 223.079 60.701,222.537 59.068,222.000 59.400 C 221.561 59.671,221.325 59.208,221.041 57.517 C 220.809 56.135,220.306 55.237,219.816 55.328 C 219.482 55.391,219.275 54.803,218.644 52.000 C 218.570 51.670,218.215 51.453,217.855 51.518 C 217.399 51.599,217.185 51.326,217.150 50.618 C 217.092 49.441,217.066 49.309,216.652 48.094 C 216.482 47.596,216.174 47.292,215.968 47.420 C 215.560 47.672,215.321 47.181,215.041 45.517 C 214.813 44.158,214.239 43.111,213.764 43.185 C 213.564 43.217,213.367 43.008,213.327 42.721 C 212.985 40.293,212.723 39.218,212.483 39.253 C 211.552 39.390,211.199 39.075,211.195 38.100 C 211.185 36.216,210.751 35.200,209.953 35.200 C 209.409 35.200,209.187 34.894,209.154 34.100 C 209.128 33.495,209.066 32.820,209.015 32.600 C 208.964 32.380,208.894 31.975,208.861 31.700 C 208.827 31.425,208.440 31.200,208.000 31.200 C 207.405 31.200,207.188 30.918,207.154 30.100 C 207.128 29.495,207.066 28.820,207.015 28.600 C 206.964 28.380,206.894 27.975,206.861 27.700 C 206.827 27.425,206.440 27.200,206.000 27.200 C 205.405 27.200,205.188 26.918,205.154 26.100 C 205.128 25.495,205.066 24.820,205.015 24.600 C 204.964 24.380,204.894 23.975,204.861 23.700 C 204.827 23.425,204.440 23.200,204.000 23.200 C 203.389 23.200,203.188 22.917,203.150 22.000 C 203.063 19.917,203.019 19.808,202.100 19.405 C 201.528 19.154,201.188 18.644,201.167 18.005 C 201.094 15.827,200.902 15.133,200.187 14.480 C 199.477 13.831,199.469 13.836,200.003 14.600 C 200.476 15.278,200.477 15.325,200.005 14.904 C 199.699 14.631,199.409 14.181,199.362 13.904 C 199.315 13.627,199.160 12.860,199.017 12.200 C 198.875 11.540,198.707 10.740,198.644 10.422 C 198.551 9.948,198.001 9.488,196.870 8.937 C 196.798 8.902,196.692 8.544,196.633 8.142 C 196.485 7.137,193.509 6.987,192.485 7.933 M178.068 212.332 C 177.588 212.812,177.362 213.627,177.377 214.823 L 177.400 216.600 179.103 216.622 C 180.345 216.639,181.024 216.413,181.609 215.790 L 182.412 214.936 181.506 213.608 C 180.317 211.865,179.017 211.383,178.068 212.332 M180.636 213.097 C 180.544 213.189,180.121 213.079,179.696 212.851 C 179.143 212.555,178.768 212.575,178.381 212.919 C 177.929 213.320,177.924 213.287,178.350 212.722 C 178.766 212.170,179.040 212.127,179.832 212.487 C 180.366 212.731,180.728 213.005,180.636 213.097 M166.651 244.206 C 165.801 245.056,166.387 246.210,167.854 246.578 C 169.292 246.939,170.819 245.556,170.154 244.494 C 169.568 243.558,167.472 243.385,166.651 244.206 M169.764 244.651 C 170.323 246.107,168.377 246.652,166.864 245.463 C 166.425 245.119,166.457 244.948,167.040 244.521 C 168.026 243.800,169.464 243.869,169.764 244.651 M167.610 244.786 C 167.128 245.090,167.202 245.229,168.010 245.538 C 169.070 245.943,169.863 245.549,169.422 244.835 C 169.094 244.305,168.400 244.286,167.610 244.786 M315.485 259.449 C 315.328 259.605,315.200 260.063,315.200 260.467 C 315.200 261.029,314.873 261.212,313.800 261.250 C 311.565 261.330,311.403 261.373,311.350 261.900 C 311.322 262.175,311.278 262.567,311.250 262.772 C 311.223 262.977,310.795 263.202,310.300 263.272 C 309.722 263.354,309.354 263.722,309.272 264.300 C 309.170 265.021,308.872 265.210,307.772 265.250 C 305.566 265.330,305.403 265.374,305.350 265.900 C 305.322 266.175,305.278 266.567,305.250 266.772 C 305.223 266.977,304.795 267.202,304.300 267.272 C 303.729 267.353,303.354 267.721,303.275 268.279 C 303.169 269.021,302.856 269.177,301.275 269.279 C 299.679 269.382,299.381 269.534,299.272 270.300 C 299.182 270.932,298.874 271.200,298.234 271.200 C 297.734 271.200,296.981 271.602,296.562 272.093 C 295.808 272.977,295.808 272.980,296.600 272.393 C 297.313 271.864,297.349 271.866,296.925 272.411 C 296.664 272.747,295.962 273.062,295.366 273.111 C 294.123 273.214,293.200 273.858,293.200 274.622 C 293.200 274.911,292.705 275.204,292.100 275.273 C 291.495 275.343,291.000 275.610,291.000 275.867 C 291.000 276.573,290.484 276.948,289.295 277.108 C 288.023 277.278,287.200 277.884,287.200 278.649 C 287.200 278.963,286.789 279.200,286.244 279.200 C 285.719 279.200,284.945 279.515,284.525 279.900 C 284.106 280.285,284.041 280.420,284.381 280.200 C 284.921 279.851,284.929 279.890,284.451 280.500 C 284.122 280.920,283.362 281.200,282.551 281.200 C 281.377 281.200,281.200 281.331,281.200 282.200 C 281.200 283.044,281.013 283.200,280.000 283.200 C 279.340 283.200,278.800 283.380,278.800 283.600 C 278.800 283.820,278.665 283.955,278.500 283.900 C 278.335 283.845,278.170 283.960,278.134 284.155 C 278.032 284.707,277.091 285.187,276.100 285.194 C 275.422 285.198,275.200 285.433,275.200 286.148 C 275.200 286.932,274.943 287.137,273.710 287.337 C 271.915 287.628,271.762 287.486,271.484 285.267 C 271.210 283.077,271.654 283.439,272.024 285.707 L 272.300 287.400 272.350 285.919 C 272.401 284.394,271.721 282.400,271.148 282.400 C 270.971 282.400,270.922 282.148,271.040 281.840 C 271.158 281.533,271.059 281.160,270.821 281.013 C 270.582 280.865,270.483 280.590,270.600 280.400 C 270.717 280.210,270.602 279.925,270.345 279.766 C 270.034 279.574,269.975 279.666,270.168 280.038 C 270.328 280.347,270.201 280.285,269.886 279.900 C 269.570 279.515,269.171 279.200,269.000 279.200 C 268.829 279.200,268.430 279.515,268.114 279.900 C 267.799 280.285,267.672 280.347,267.832 280.038 C 268.025 279.666,267.966 279.574,267.655 279.766 C 267.398 279.925,267.283 280.210,267.400 280.400 C 267.517 280.590,267.417 280.866,267.178 281.013 C 266.348 281.526,266.060 282.967,266.652 283.640 C 266.979 284.011,267.255 285.316,267.308 286.740 C 267.359 288.092,267.554 289.199,267.743 289.199 C 267.931 289.200,267.978 289.479,267.847 289.821 C 267.711 290.177,267.778 290.337,268.005 290.197 C 268.222 290.063,268.400 290.154,268.400 290.400 C 268.400 290.646,268.580 290.736,268.800 290.600 C 269.020 290.464,269.200 290.543,269.200 290.776 C 269.200 291.009,268.750 291.200,268.200 291.200 C 267.650 291.200,267.110 291.200,267.000 291.200 C 266.589 291.200,265.333 292.612,265.487 292.900 C 265.575 293.065,265.097 293.200,264.424 293.200 C 263.385 293.200,263.200 293.351,263.200 294.200 C 263.200 295.044,263.013 295.200,262.000 295.200 C 260.282 295.200,259.046 295.805,259.438 296.455 C 259.522 296.595,259.323 296.932,258.996 297.204 C 258.668 297.476,258.400 297.579,258.400 297.433 C 258.400 297.288,258.168 297.385,257.885 297.650 C 257.304 298.192,257.140 301.200,257.691 301.200 C 257.887 301.200,257.940 301.374,257.808 301.587 C 257.677 301.800,257.936 302.203,258.384 302.483 C 258.833 302.763,259.200 303.399,259.200 303.896 C 259.200 304.393,259.399 304.800,259.643 304.800 C 259.886 304.800,259.984 305.064,259.860 305.387 C 259.736 305.710,259.835 306.098,260.079 306.249 C 260.364 306.425,260.419 306.322,260.232 305.962 C 260.072 305.653,260.224 305.749,260.570 306.176 C 260.917 306.604,261.200 307.298,261.200 307.719 C 261.200 308.140,261.650 308.839,262.200 309.271 C 262.912 309.832,263.200 310.445,263.200 311.402 C 263.200 312.562,263.351 312.770,264.300 312.913 C 264.905 313.005,258.198 313.107,249.396 313.140 C 234.058 313.198,233.372 313.232,232.911 313.971 C 232.536 314.571,232.536 314.779,232.909 314.903 C 233.174 314.991,232.696 315.089,231.848 315.121 C 230.197 315.183,229.200 315.759,229.200 316.649 C 229.200 316.963,228.789 317.200,228.244 317.200 C 227.719 317.200,226.945 317.515,226.525 317.900 C 226.106 318.285,226.041 318.420,226.381 318.200 C 226.914 317.855,226.927 317.894,226.471 318.476 C 226.180 318.848,225.460 319.208,224.871 319.276 C 224.220 319.351,223.645 319.753,223.405 320.300 C 223.138 320.908,222.666 321.200,221.948 321.200 C 221.359 321.200,220.780 321.475,220.648 321.818 C 220.518 322.158,219.759 322.709,218.962 323.042 C 218.165 323.375,217.421 323.997,217.310 324.424 C 217.168 324.966,216.759 325.200,215.953 325.200 C 215.319 325.200,214.800 325.380,214.800 325.600 C 214.800 325.820,214.665 325.955,214.500 325.900 C 214.335 325.845,214.170 325.960,214.134 326.155 C 214.032 326.707,213.091 327.187,212.100 327.194 C 211.408 327.199,211.200 327.431,211.200 328.200 C 211.200 329.044,211.013 329.200,210.000 329.200 C 208.844 329.200,207.021 330.488,207.500 330.967 C 207.628 331.095,207.163 331.200,206.467 331.200 C 205.382 331.200,205.200 331.344,205.200 332.200 C 205.200 333.146,204.273 333.523,202.658 333.233 C 202.048 333.124,201.158 334.113,201.369 334.664 C 201.513 335.038,201.216 335.200,200.387 335.200 C 199.388 335.200,199.200 335.358,199.200 336.200 C 199.200 336.984,198.984 337.213,198.200 337.260 C 197.650 337.293,196.975 337.338,196.700 337.360 C 196.042 337.413,195.260 338.104,195.338 338.565 C 195.372 338.765,194.950 339.042,194.400 339.181 C 193.776 339.338,193.352 339.765,193.272 340.316 C 193.155 341.129,192.420 341.377,190.400 341.286 C 190.087 341.271,189.180 342.349,189.215 342.692 C 189.233 342.861,188.832 343.097,188.324 343.216 C 187.764 343.347,187.350 343.781,187.272 344.316 C 187.171 345.019,186.863 345.210,185.772 345.250 C 183.566 345.330,183.403 345.374,183.350 345.900 C 183.322 346.175,183.278 346.567,183.250 346.772 C 183.222 346.977,182.795 347.202,182.300 347.272 C 181.722 347.354,181.354 347.722,181.272 348.300 C 181.170 349.021,180.872 349.210,179.772 349.250 C 177.566 349.330,177.403 349.374,177.350 349.900 C 177.322 350.175,177.278 350.580,177.250 350.800 C 177.222 351.020,176.793 351.200,176.296 351.200 C 175.265 351.200,174.098 352.633,174.909 352.903 C 175.174 352.991,174.696 353.089,173.848 353.121 C 172.197 353.183,171.200 353.759,171.200 354.649 C 171.200 354.952,170.816 355.200,170.346 355.200 C 169.876 355.200,169.089 355.634,168.597 356.165 C 168.105 356.697,167.274 357.192,166.751 357.265 C 166.228 357.339,165.622 357.805,165.405 358.300 C 165.175 358.824,164.658 359.200,164.167 359.200 C 163.703 359.200,162.981 359.602,162.562 360.093 C 161.808 360.977,161.808 360.980,162.600 360.393 C 163.313 359.864,163.349 359.866,162.925 360.411 C 162.664 360.747,161.962 361.062,161.366 361.111 C 160.108 361.215,159.200 361.860,159.200 362.649 C 159.200 362.970,158.783 363.200,158.200 363.200 C 157.650 363.200,157.200 363.399,157.200 363.643 C 157.200 363.886,156.936 363.984,156.613 363.860 C 156.290 363.736,155.902 363.835,155.751 364.079 C 155.575 364.364,155.678 364.419,156.038 364.232 C 156.347 364.072,156.251 364.224,155.824 364.570 C 155.396 364.917,154.631 365.200,154.124 365.200 C 153.405 365.200,153.200 365.422,153.200 366.200 C 153.200 367.048,153.015 367.200,151.981 367.200 C 151.194 367.200,150.433 367.555,149.835 368.200 C 149.325 368.750,148.524 369.200,148.054 369.200 C 147.410 369.200,147.200 369.446,147.200 370.200 C 147.200 371.044,147.013 371.200,146.000 371.200 C 144.844 371.200,143.021 372.488,143.500 372.967 C 143.628 373.095,143.163 373.200,142.467 373.200 C 141.382 373.200,141.200 373.344,141.200 374.200 C 141.200 374.984,140.984 375.213,140.200 375.260 C 139.650 375.293,138.975 375.338,138.700 375.360 C 138.025 375.414,137.262 376.108,137.338 376.600 C 137.372 376.820,136.905 377.057,136.300 377.127 C 135.436 377.226,135.200 377.462,135.200 378.227 C 135.200 379.041,135.005 379.200,134.000 379.200 C 132.212 379.200,131.202 379.728,131.338 380.591 C 131.372 380.805,131.009 381.041,130.530 381.114 C 130.052 381.188,129.373 381.687,129.021 382.224 C 128.669 382.761,128.116 383.200,127.791 383.200 C 127.369 383.200,127.200 383.654,127.200 384.789 L 127.200 386.378 254.231 386.394 L 381.262 386.411 381.156 384.705 C 381.037 382.780,380.440 381.128,379.969 381.419 C 379.563 381.670,379.299 381.222,379.000 379.772 C 378.867 379.127,378.702 378.330,378.634 378.000 C 378.565 377.670,378.235 377.448,377.899 377.507 C 377.486 377.580,377.222 377.192,377.080 376.307 C 376.696 373.901,376.526 373.400,376.095 373.400 C 375.467 373.400,375.297 373.134,375.077 371.800 C 374.777 369.992,374.375 369.200,373.757 369.200 C 373.451 369.200,373.178 368.840,373.150 368.400 C 373.044 366.704,372.423 365.138,371.968 365.420 C 371.552 365.677,371.320 365.181,371.023 363.400 C 370.913 362.740,370.474 361.914,370.046 361.563 C 369.618 361.213,369.171 360.313,369.053 359.563 C 368.935 358.814,368.489 357.916,368.061 357.570 C 367.429 357.057,366.909 355.358,366.815 353.500 C 366.807 353.335,366.440 353.200,366.000 353.200 C 365.451 353.200,365.186 352.918,365.154 352.300 C 365.128 351.805,365.066 351.220,365.015 351.000 C 364.964 350.780,364.894 350.274,364.861 349.876 C 364.827 349.478,364.656 349.242,364.481 349.350 C 363.670 349.851,362.951 348.189,362.815 345.500 C 362.807 345.335,362.440 345.200,362.000 345.200 C 361.427 345.200,361.186 344.917,361.150 344.200 C 361.123 343.650,361.055 343.020,361.000 342.800 C 360.945 342.580,360.878 342.130,360.850 341.800 C 360.822 341.470,360.440 341.200,360.000 341.200 C 359.427 341.200,359.186 340.917,359.150 340.200 C 359.123 339.650,359.055 339.020,359.000 338.800 C 358.945 338.580,358.878 338.130,358.850 337.800 C 358.820 337.440,358.400 337.200,357.800 337.200 C 356.867 337.200,356.800 337.067,356.800 335.200 C 356.800 333.467,356.693 333.200,356.000 333.200 C 355.323 333.200,354.795 331.399,355.268 330.700 C 355.471 330.399,354.308 328.823,353.943 328.904 C 353.704 328.957,353.426 328.550,353.323 328.000 C 353.221 327.450,353.075 326.730,352.999 326.400 C 352.923 326.070,352.847 325.686,352.831 325.547 C 352.814 325.407,352.440 325.199,352.000 325.084 C 351.479 324.948,351.183 324.513,351.150 323.837 C 351.123 323.267,351.055 322.620,351.000 322.400 C 350.945 322.180,350.878 321.841,350.850 321.647 C 350.822 321.452,350.440 321.199,350.000 321.084 C 349.340 320.911,348.850 319.318,349.268 318.700 C 349.471 318.398,348.308 316.823,347.941 316.904 C 347.513 316.998,347.351 316.518,347.049 314.262 C 346.965 313.637,346.569 312.827,346.170 312.462 C 345.482 311.835,345.473 311.842,346.003 312.600 C 346.476 313.278,346.477 313.325,346.005 312.904 C 345.699 312.631,345.406 312.181,345.355 311.904 C 345.305 311.627,345.195 311.013,345.113 310.539 C 345.030 310.065,344.701 309.356,344.381 308.962 C 343.870 308.332,343.872 308.289,344.400 308.600 C 344.916 308.904,344.924 308.860,344.455 308.281 C 344.155 307.911,343.750 307.707,343.555 307.828 C 343.360 307.949,343.187 307.722,343.170 307.324 C 343.104 305.711,342.740 304.572,342.109 304.002 C 341.498 303.449,341.489 303.465,342.000 304.200 C 342.509 304.932,342.500 304.949,341.901 304.400 C 341.540 304.070,341.184 303.325,341.108 302.744 C 341.033 302.164,340.708 301.364,340.386 300.967 C 339.869 300.332,339.871 300.288,340.400 300.600 C 340.916 300.904,340.924 300.860,340.455 300.281 C 340.155 299.911,339.750 299.707,339.555 299.828 C 339.360 299.949,339.200 299.677,339.200 299.224 C 339.200 297.908,339.177 297.839,338.471 297.031 C 337.963 296.449,337.945 296.346,338.400 296.608 C 338.916 296.905,338.924 296.860,338.455 296.281 C 338.155 295.911,337.750 295.707,337.555 295.828 C 337.360 295.949,337.178 295.677,337.150 295.224 C 337.071 293.916,337.017 293.684,336.728 293.394 C 336.578 293.244,336.545 292.888,336.655 292.601 C 336.765 292.315,336.634 291.945,336.365 291.779 C 336.033 291.573,335.970 291.656,336.168 292.038 C 336.328 292.347,336.176 292.251,335.830 291.824 C 335.483 291.396,335.179 290.766,335.154 290.424 C 335.020 288.616,334.434 287.132,333.968 287.420 C 333.552 287.677,333.320 287.181,333.023 285.400 C 332.913 284.740,332.474 283.914,332.046 283.563 C 331.618 283.213,331.171 282.313,331.053 281.563 C 330.935 280.814,330.485 279.914,330.053 279.563 C 329.621 279.213,329.171 278.313,329.053 277.563 C 328.935 276.814,328.470 275.901,328.019 275.536 C 327.561 275.164,327.188 274.371,327.172 273.736 C 327.139 272.415,326.694 271.128,326.284 271.170 C 325.364 271.266,325.197 271.075,325.172 269.900 C 325.140 268.439,324.713 267.126,324.284 267.170 C 324.128 267.187,323.839 267.200,323.643 267.200 C 323.447 267.200,323.130 266.345,322.939 265.300 C 322.749 264.255,322.384 263.400,322.129 263.400 C 321.465 263.400,321.300 263.149,321.077 261.800 C 320.694 259.489,320.513 259.335,318.067 259.247 C 316.803 259.201,315.641 259.292,315.485 259.449 M266.726 268.770 C 266.356 269.363,266.353 269.778,266.714 270.570 C 266.973 271.139,267.016 271.600,266.810 271.600 C 266.341 271.600,265.829 269.001,266.184 268.426 C 266.329 268.192,266.618 268.000,266.827 268.000 C 267.036 268.000,266.990 268.347,266.726 268.770 M143.673 282.422 C 142.408 282.930,142.606 284.783,144.000 285.485 C 144.550 285.762,144.763 285.991,144.474 285.994 C 143.212 286.008,142.400 285.156,142.400 283.819 C 142.400 282.497,142.788 282.070,144.000 282.057 C 144.330 282.054,144.183 282.218,143.673 282.422 M271.600 288.600 C 271.600 288.930,271.285 289.186,270.900 289.168 C 270.478 289.149,270.399 289.056,270.702 288.934 C 270.979 288.823,271.103 288.567,270.979 288.366 C 270.855 288.165,270.943 288.000,271.176 288.000 C 271.409 288.000,271.600 288.270,271.600 288.600 " stroke="none" fill="#ff8000" fill-rule="evenodd"></path><path id="path2" d="M154.187 261.974 C 154.759 263.081,154.746 263.163,153.967 263.411 C 153.512 263.555,153.228 263.761,153.336 263.869 C 153.443 263.977,153.908 263.863,154.368 263.617 C 155.147 263.200,154.646 260.800,153.779 260.800 C 153.669 260.800,153.853 261.328,154.187 261.974 M8.080 384.080 C 7.274 384.886,7.534 385.995,8.626 386.410 C 9.273 386.656,23.573 386.765,47.326 386.704 L 85.000 386.608 47.200 386.399 C 26.410 386.284,9.355 386.147,9.300 386.095 C 9.245 386.043,9.200 385.460,9.200 384.800 C 9.200 383.522,8.858 383.302,8.080 384.080 M127.338 386.500 C 127.236 386.665,184.358 386.757,254.276 386.705 C 324.194 386.652,374.380 386.563,365.800 386.506 C 325.771 386.239,127.502 386.234,127.338 386.500 " stroke="none" fill="#ffa34d" fill-rule="evenodd"></path><path id="path3" d="M9.296 387.704 L 9.681 388.808 46.677 388.796 C 85.202 388.783,84.800 388.800,84.800 387.233 C 84.800 386.937,73.283 386.776,46.856 386.704 L 8.911 386.600 9.296 387.704 M127.467 387.371 C 126.918 388.801,126.393 388.795,253.275 388.799 C 380.557 388.803,380.800 388.800,380.800 387.361 C 380.800 386.508,127.794 386.517,127.467 387.371 " stroke="none" fill="#ffd9b3" fill-rule="evenodd"></path><path id="path4" d="M182.800 200.172 C 182.800 200.487,182.395 200.822,181.900 200.918 C 181.128 201.066,181.157 201.099,182.100 201.146 C 182.951 201.188,183.200 201.019,183.200 200.400 C 183.200 199.960,183.110 199.600,183.000 199.600 C 182.890 199.600,182.800 199.857,182.800 200.172 M166.875 243.310 C 166.543 243.710,166.826 243.818,168.190 243.810 C 169.533 243.802,169.834 243.686,169.515 243.300 C 168.979 242.651,167.417 242.657,166.875 243.310 M166.804 246.605 C 167.474 247.412,168.980 247.356,169.651 246.500 C 170.147 245.867,170.133 245.852,169.508 246.342 C 168.971 246.763,168.536 246.786,167.564 246.447 C 166.472 246.067,166.374 246.087,166.804 246.605 M7.600 386.784 C 7.600 387.217,9.265 388.869,9.482 388.651 C 9.559 388.574,9.442 388.036,9.221 387.455 C 8.844 386.463,7.600 385.948,7.600 386.784 M380.800 387.300 C 380.800 387.648,380.305 388.114,379.700 388.335 L 378.600 388.737 379.673 388.768 C 380.704 388.799,381.645 387.512,381.037 386.903 C 380.906 386.773,380.800 386.952,380.800 387.300 " stroke="none" fill="#ffff00" fill-rule="evenodd"></path></g></svg>